<?xml version="1.0" standalone="no"?>
<!DOCTYPE svg PUBLIC "-//W3C//DTD SVG 1.1//EN" "http://www.w3.org/Graphics/SVG/1.1/DTD/svg11.dtd" >
<svg xmlns="http://www.w3.org/2000/svg">
<metadata></metadata>
<defs>
<font id="philosopherregular" horiz-adv-x="1024" >
<font-face units-per-em="2048" ascent="1638" descent="-410" />
<missing-glyph horiz-adv-x="512" />
<glyph horiz-adv-x="2048" />
<glyph horiz-adv-x="2048" />
<glyph unicode="&#xd;" horiz-adv-x="2048" />
<glyph unicode=" "  horiz-adv-x="512" />
<glyph unicode="&#x09;" horiz-adv-x="512" />
<glyph unicode="&#xa0;" horiz-adv-x="512" />
<glyph unicode="!" horiz-adv-x="548" d="M164 84q0 44 33 76.5t77 32.5t77.5 -32.5t33.5 -76.5q0 -47 -33 -80t-78 -33t-77.5 33t-32.5 80zM178 1352h193l-37 -1035h-119z" />
<glyph unicode="&#x22;" horiz-adv-x="778" d="M123 1352h205l-62 -553h-82zM451 1352h204l-61 -553h-82z" />
<glyph unicode="#" horiz-adv-x="1433" d="M123 369v82h295l84 409h-256v82h272l86 410h82l-86 -410h348l86 410h82l-86 -410h281v-82h-297l-86 -409h260v-82h-277l-82 -400h-81l81 400h-348l-82 -400h-82l82 400h-276zM498 451h350l84 409h-348z" />
<glyph unicode="$" horiz-adv-x="1077" d="M92 215v219h37q30 -183 115.5 -276.5t230.5 -108.5v553l-143 86q-130 76 -185 157t-55 195q0 155 104.5 249.5t278.5 99.5v116h82v-121q95 -8 179 -38t140 -84t56 -119v-219h-37q-30 182 -113 273t-225 106v-519l174 -102q137 -80 195.5 -154t58.5 -184q0 -173 -115 -276 t-313 -103v-129h-82v133q-158 16 -270.5 83t-112.5 163zM252 1100q0 -84 51 -139.5t172 -126.5v473q-92 -5 -157.5 -62t-65.5 -145zM557 47q105 3 178.5 59t73.5 150q0 86 -53.5 150t-171.5 133l-27 14v-506z" />
<glyph unicode="%" horiz-adv-x="1290" d="M61 1106q0 109 74.5 177.5t202.5 68.5t202 -68.5t74 -177.5t-74 -177.5t-202 -68.5t-202.5 68.5t-74.5 177.5zM133 0l932 1352h92l-932 -1352h-92zM133 0l932 1352h92l-932 -1352h-92zM195 1106q0 -83 40 -133.5t103 -50.5t103 50.5t40 133.5t-40 133.5t-103 50.5 t-103 -50.5t-40 -133.5zM676 246q0 109 74 177.5t202 68.5t202.5 -68.5t74.5 -177.5t-74.5 -177.5t-202.5 -68.5t-202 68.5t-74 177.5zM809 246q0 -84 40.5 -134.5t102.5 -50.5q63 0 103.5 51t40.5 134t-40.5 133.5t-103.5 50.5t-103 -50.5t-40 -133.5z" />
<glyph unicode="&#x26;" horiz-adv-x="1157" d="M61 338q0 114 62.5 207.5t163.5 136.5q-113 166 -113 322q0 94 24 166t61.5 113t90 67t100.5 34.5t103 8.5q119 0 225 -47t164 -117q24 -28 36 -76.5t13.5 -85t1.5 -104.5h-41q-29 161 -126.5 254.5t-211.5 93.5q-99 0 -167 -80.5t-68 -226.5q0 -39 7 -77.5t16 -71 t30 -70.5t36.5 -65t49 -67t54.5 -64t66 -68.5t70 -68.5t79.5 -76t82.5 -79q78 173 93 358h61v-61q0 -203 -84 -375l156 -147l-72 -70l-143 121q-146 -164 -369 -164q-219 0 -335 107.5t-116 271.5zM256 338q0 -131 75 -214t222 -83q74 0 141 39.5t115 103.5 q-253 212 -440 402q-54 -39 -83.5 -105t-29.5 -143z" />
<glyph unicode="'" horiz-adv-x="450" d="M123 1352h205l-62 -553h-82z" />
<glyph unicode="(" horiz-adv-x="573" d="M41 492q0 201 61.5 367.5t170.5 296t280 257.5l20 -31q-348 -309 -348 -890q0 -582 348 -891l-20 -31q-171 128 -280 258t-170.5 296.5t-61.5 367.5z" />
<glyph unicode=")" horiz-adv-x="573" d="M0 -399q348 309 348 891q0 581 -348 890l20 31q171 -128 280 -257.5t170.5 -296t61.5 -367.5t-61.5 -367.5t-170.5 -296.5t-280 -258z" />
<glyph unicode="*" horiz-adv-x="921" d="M123 911l297 103l-297 102l82 144l235 -216l-61 308h164l-62 -308l236 216l82 -144l-297 -102l297 -103l-82 -143l-236 215l62 -307h-164l61 307l-235 -215z" />
<glyph unicode="+" d="M41 635v82h430v430h82v-430h430v-82h-430v-430h-82v430h-430z" />
<glyph unicode="," horiz-adv-x="460" d="M102 82q0 54 34.5 88.5t88.5 34.5q62 0 97.5 -38t35.5 -106q0 -249 -225 -378l-20 30q81 57 122 123t41 154l-61 -21q-46 0 -79.5 33.5t-33.5 79.5z" />
<glyph unicode="-" horiz-adv-x="686" d="M82 471v143h522v-143h-522z" />
<glyph unicode="." horiz-adv-x="425" d="M102 84q0 44 33.5 77.5t77.5 33.5q47 0 79 -33t32 -78q0 -47 -33 -80t-78 -33t-78 33t-33 80z" />
<glyph unicode="/" horiz-adv-x="808" d="M20 -51l697 1515l71 -30l-696 -1516z" />
<glyph unicode="0" horiz-adv-x="1146" d="M82 676q0 717 491 717q492 0 492 -717t-492 -717q-491 0 -491 717zM287 676q0 -337 61.5 -486t224.5 -149t225 149.5t62 485.5t-62 485.5t-225 149.5t-224.5 -149t-61.5 -486z" />
<glyph unicode="1" horiz-adv-x="593" d="M-10 1065l317 287h103v-1352h-185v1147l-205 -123z" />
<glyph unicode="2" horiz-adv-x="1044" d="M61 0v102q56 55 135 130.5t123.5 118.5t104.5 102.5t93 97.5t73 88t61 89t41 86t27.5 93t7.5 97q0 147 -76 227t-190 80q-125 0 -216.5 -91t-121.5 -257h-41q0 68 1.5 104.5t13 85t34.5 76.5q58 70 165 117t226 47q55 0 106 -8.5t108.5 -34.5t99 -67t69 -113t27.5 -166 q0 -84 -29.5 -166t-72.5 -146.5t-121.5 -146.5t-144.5 -140.5l-176 -156t-183 -166.5h461q124 0 190 54.5t66 160.5h41v-133q0 -164 -175 -164h-727z" />
<glyph unicode="3" d="M41 174l31 41q157 -174 379 -174q63 0 117.5 20t97.5 60t67.5 106t24.5 152q0 77 -24 139.5t-63 100t-85 57.5t-94 20q-23 0 -43 -0.5t-34 -1t-31.5 -2.5t-25.5 -3t-26.5 -4.5t-25 -5t-29.5 -6.5t-31 -7l-51 71l532 533h-358q-124 0 -190 -54.5t-66 -160.5h-41v133 q0 164 174 164h631v-82l-529 -512q72 20 184 20q43 0 92 -8.5t111.5 -35t111 -68.5t82.5 -116.5t34 -170.5q0 -86 -23 -155t-63.5 -113.5t-88.5 -75.5t-105 -47t-105 -22.5t-97 -6.5q-145 0 -246.5 53.5t-193.5 161.5z" />
<glyph unicode="4" horiz-adv-x="1064" d="M20 348v82l676 922h164v-922h184v-82h-184v-348h-184v348h-656zM143 430h533v725z" />
<glyph unicode="5" d="M41 174l31 41q157 -174 379 -174q63 0 117.5 20t97.5 60t67.5 106t24.5 152q0 157 -82 237t-225 80l-287 -10l-72 80l21 586h768v-82h-605l-20 -492h236q51 0 99.5 -6.5t104 -21.5t101.5 -45t84.5 -72t60 -107.5t21.5 -146.5q0 -86 -23 -155t-63.5 -113.5t-88.5 -75.5 t-105 -47t-105 -22.5t-97 -6.5q-145 0 -246.5 53.5t-193.5 161.5z" />
<glyph unicode="6" horiz-adv-x="1064" d="M82 676q0 190 25 320.5t83.5 221.5t155 133t238.5 42q62 0 120.5 -10.5t90 -20.5t86.5 -31l-11 -41q-128 21 -245 21q-105 0 -176.5 -36t-111 -108t-55.5 -162.5t-16 -216.5q131 93 328 93q389 0 389 -461q0 -73 -15 -138.5t-50 -125.5t-87.5 -103t-131.5 -68.5 t-177 -25.5q-235 0 -337.5 171.5t-102.5 545.5zM266 696q0 -353 59 -504t197 -151q70 0 123 31.5t83.5 85.5t45 120t14.5 142q0 188 -58 283.5t-198 95.5q-86 0 -145.5 -25.5t-120.5 -77.5z" />
<glyph unicode="7" horiz-adv-x="931" d="M20 1055v133q0 164 175 164h716v-82l-512 -1270h-184l512 1270h-410q-124 0 -190 -54.5t-66 -160.5h-41z" />
<glyph unicode="8" horiz-adv-x="1105" d="M82 307q0 73 27 134t77 106.5t102 76.5t122 62q-62 36 -105 66.5t-86 74.5t-64.5 98t-21.5 119q0 78 22.5 138.5t60.5 99.5t92.5 64.5t114.5 36t130 10.5q88 0 161 -17t132.5 -54t93 -102.5t33.5 -154.5q0 -114 -72.5 -199t-183.5 -139q56 -33 92 -56.5t81.5 -62t71 -76 t44 -91t18.5 -113.5q0 -97 -37 -169.5t-103 -115t-149 -63.5t-182 -21t-182 20.5t-149 61t-103 109t-37 157.5zM276 307q0 -130 80 -198t197 -68q115 0 195.5 64.5t80.5 181.5q0 51 -18 96t-45.5 79t-73.5 68.5t-87.5 59t-102.5 55.5q-51 -25 -87.5 -51.5t-70 -66t-51 -95 t-17.5 -125.5zM328 1085q0 -168 297 -307q74 55 113.5 118.5t39.5 168.5q0 56 -14 100t-36 71t-52 44.5t-60 24t-63 6.5q-41 0 -78.5 -11.5t-71.5 -36t-54.5 -70.5t-20.5 -108z" />
<glyph unicode="9" horiz-adv-x="1064" d="M82 932q0 73 15 138.5t50 125.5t87.5 103t131.5 68.5t177 25.5q235 0 337.5 -171.5t102.5 -545.5q0 -190 -25 -320.5t-83.5 -221.5t-155 -133t-238.5 -42q-62 0 -120 10t-91 20.5t-86 30.5l11 41q122 -20 245 -20q105 0 176.5 36t111 107.5t55.5 162t16 216.5 q-130 -92 -328 -92q-389 0 -389 461zM276 932q0 -188 58 -283.5t198 -95.5q86 0 146.5 25.5t120.5 76.5q0 353 -59 504.5t-197 151.5q-70 0 -123.5 -31.5t-84 -85.5t-45 -120t-14.5 -142z" />
<glyph unicode=":" horiz-adv-x="428" d="M102 84q0 44 33.5 77.5t77.5 33.5q47 0 80 -33t33 -78q0 -47 -33 -80t-80 -33q-45 0 -78 33t-33 80zM104 834q0 44 33.5 77t77.5 33q47 0 79 -32.5t32 -77.5q0 -47 -32 -79t-79 -32q-45 0 -78 32t-33 79z" />
<glyph unicode=";" horiz-adv-x="460" d="M102 82q0 47 37.5 85t96.5 38q55 0 88.5 -44t33.5 -120q0 -108 -51.5 -191t-173.5 -165l-22 28q86 68 125.5 130.5t39.5 156.5q-31 -31 -71 -31q-45 0 -74 33t-29 80zM123 836q0 44 33 76t80 32q44 0 77 -32t33 -76q0 -47 -32.5 -79t-77.5 -32q-47 0 -80 32t-33 79z" />
<glyph unicode="&#x3c;" horiz-adv-x="1187" d="M41 655v62l1065 461v-82l-942 -410l942 -410v-81z" />
<glyph unicode="=" horiz-adv-x="1239" d="M82 471v82h1075v-82h-1075zM82 799v82h1075v-82h-1075z" />
<glyph unicode="&#x3e;" horiz-adv-x="1187" d="M82 195v81l942 410l-942 410v82l1065 -461v-62z" />
<glyph unicode="?" horiz-adv-x="954" d="M41 963q0 68 1.5 104.5t13.5 85t36 76.5q58 70 165 117t226 47q55 0 106 -8.5t108.5 -34.5t99 -67t69 -113t27.5 -166q0 -71 -23 -133t-60.5 -108t-82.5 -88t-90.5 -81.5t-83.5 -79t-63 -90t-27 -105.5h-82q2 68 20 127t45.5 102.5t59.5 84t64 79.5t58.5 80t43 95.5 t16.5 116.5q0 147 -76 227t-190 80q-126 0 -218 -91.5t-122 -256.5h-41zM311 84q0 47 32 80t79 33t80 -33t33 -80q0 -44 -34.5 -77.5t-78.5 -33.5q-47 0 -79 33t-32 78z" />
<glyph unicode="@" horiz-adv-x="1761" d="M82 512q0 211 58.5 378.5t164.5 277.5t252.5 167.5t323.5 57.5q176 0 323 -57t252.5 -163t164 -265t58.5 -355q0 -255 -99 -399t-300 -144q-166 0 -215 113h-10q-37 -46 -109.5 -79.5t-177.5 -33.5q-37 0 -74.5 8t-78.5 28.5t-72 52t-51.5 83t-20.5 115.5q0 287 522 287 h62q0 104 -15.5 175t-46.5 107.5t-67 51t-86 14.5q-91 0 -147.5 -39.5t-78.5 -134.5h-92q0 47 1.5 71t13.5 56.5t36 56.5q36 36 121.5 54t186.5 18q50 0 91 -6.5t83.5 -23t74 -47.5t57 -77t39 -116t13.5 -160v-369q0 -51 26 -87t76 -36q105 0 180.5 127t75.5 334 q0 362 -193.5 560t-522.5 198q-162 0 -293.5 -50.5t-226 -149t-146 -251t-51.5 -348.5t51.5 -348.5t146 -251t226 -149t293.5 -50.5q382 0 635 174l40 -61q-283 -195 -675 -195q-177 0 -323.5 57.5t-252.5 167.5t-164.5 277.5t-58.5 378.5zM666 297q0 -95 56 -145t138 -50 q48 0 87.5 19.5t61 43t46.5 60.5v277h-62q-152 0 -239.5 -56t-87.5 -149z" />
<glyph unicode="A" horiz-adv-x="1269" d="M41 0l573 1352h62l450 -1096q48 -117 95 -162.5t131 -52.5v-41q-33 -10 -82 -10q-42 0 -82 9t-91 34.5t-97 82.5t-78 140l-52 133h-573l-164 -389h-92zM328 471h501l-245 594z" />
<glyph unicode="B" horiz-adv-x="1239" d="M20 1311v41h533q52 0 99 -3t104.5 -13t105 -25.5t94 -43t78.5 -64.5t52 -90.5t20 -119.5q0 -96 -66.5 -174.5t-199.5 -122.5q188 -29 263 -111t75 -216q0 -89 -35 -156t-89 -106.5t-131.5 -64.5t-151 -33.5t-157.5 -8.5h-409v1106q0 51 -5.5 85t-20 63t-44 43t-74.5 14 h-41zM389 100q95 -28 195 -28q185 0 287 74.5t102 211.5q0 139 -99 213t-290 74h-195v-545zM389 727h195q133 0 230 73.5t97 203.5q0 70 -34 125t-89 86.5t-118 48t-127 16.5q-72 0 -154 -20v-533z" />
<glyph unicode="C" horiz-adv-x="1300" d="M61 655q0 151 50.5 288t136 235.5t203 156.5t245.5 58q162 0 287 -46.5t184 -117.5q24 -29 36 -83.5t14 -99t2 -124.5h-41q-75 389 -420 389q-83 0 -153.5 -20.5t-134 -69t-108 -122.5t-70.5 -187t-26 -257q0 -95 17.5 -182t56 -166.5t94.5 -138t139.5 -93t184.5 -34.5 q150 0 262 72.5t199 214.5l41 -31q-96 -184 -233 -261t-331 -77q-143 0 -263 54t-201 148t-126 221.5t-45 272.5z" />
<glyph unicode="D" horiz-adv-x="1423" d="M20 1311v41h537q397 0 601 -176.5t204 -491.5q0 -151 -48.5 -275.5t-141 -216t-236.5 -142t-326 -50.5h-405v1106q0 51 -5.5 85t-20 63t-44 43t-74.5 14h-41zM395 98q121 -26 209 -26q232 0 383.5 165.5t151.5 438.5q0 178 -69.5 316t-192 213t-277.5 75q-99 0 -205 -33 v-1149z" />
<glyph unicode="E" horiz-adv-x="1198" d="M20 1311v41h873q174 0 174 -164v-154h-41q0 236 -256 236h-381v-533h553v-82h-553v-573h359q140 0 221.5 51.5t126.5 173.5l41 -10l-72 -195q-38 -102 -154 -102h-706v1106q0 51 -5.5 85t-20 63t-44 43t-74.5 14h-41z" />
<glyph unicode="F" horiz-adv-x="1073" d="M20 1311v41h818q174 0 174 -164v-154h-41q0 236 -256 236h-326v-543h463v-82h-463v-645h-184v1106q0 51 -5.5 85t-20 63t-44 43t-74.5 14h-41z" />
<glyph unicode="G" horiz-adv-x="1402" d="M61 696q0 195 76.5 352.5t222.5 251t336 93.5q176 0 304.5 -46t187.5 -118q24 -28 36 -82t13.5 -92t1.5 -103h-41q-78 359 -440 359q-101 0 -184.5 -34.5t-139.5 -93.5t-94.5 -138.5t-56 -166.5t-17.5 -182q0 -144 26 -257t70.5 -186.5t108 -122t134 -69t153.5 -20.5 q183 0 317 72v356q0 39 5.5 69t25.5 64t55 56t99 36.5t153 14.5v-41q-93 0 -123 -47t-30 -148v-385q-211 -129 -502 -129q-201 0 -361 98.5t-248 266.5t-88 372z" />
<glyph unicode="H" horiz-adv-x="1392" d="M20 1311v41h185q75 0 112.5 -19t54.5 -71t17 -156v-369h615v615h184v-1106q0 -51 5.5 -85t20 -63t43.5 -43t74 -14h41v-41h-184q-75 0 -112.5 19t-54.5 71t-17 156v409h-615v-655h-184v1106q0 51 -5.5 85t-20 63t-44 43t-74.5 14h-41z" />
<glyph unicode="I" horiz-adv-x="593" d="M205 246v1106h184v-1106q0 -51 5.5 -85t20 -63t43.5 -43t74 -14h41v-41h-184q-75 0 -112.5 19t-54.5 71t-17 156z" />
<glyph unicode="J" horiz-adv-x="532" d="M10 -240q97 0 146 105t49 295v1192h184v-1192q0 -120 -17.5 -199.5t-60.5 -135.5t-116.5 -81t-184.5 -25v41z" />
<glyph unicode="K" horiz-adv-x="1331" d="M20 1311v41h185q75 0 112.5 -19t54.5 -71t17 -156v-399l430 430q13 13 49 50.5t51.5 52t49 42t59 39t62.5 21.5t77 10h103v-52q-87 0 -150.5 -30t-146.5 -113l-400 -399l471 -492q88 -92 182 -155t167 -72v-39q-62 -20 -133 -20q-98 0 -202 52t-239 193l-430 451v-676 h-184v1106q0 51 -5.5 85t-20 63t-44 43t-74.5 14h-41z" />
<glyph unicode="L" horiz-adv-x="1095" d="M20 1311v41h185q75 0 112.5 -19t54.5 -71t17 -156v-1024h727v-82h-911v1106q0 51 -5.5 85t-20 63t-44 43t-74.5 14h-41z" />
<glyph unicode="M" horiz-adv-x="1761" d="M205 0v1352h194l492 -1065l481 1065h184v-1004q0 -189 49 -294t146 -105v-41q-111 0 -184.5 25t-116.5 81t-60.5 135.5t-17.5 198.5v789l-512 -1137h-41l-532 1157v-1157h-82z" />
<glyph unicode="N" horiz-adv-x="1351" d="M0 1311v41h133q178 0 277 -123l716 -891v1014h82v-1372h-41l-880 1095v-1075h-82v1106q0 99 -41.5 152t-143.5 53h-20z" />
<glyph unicode="O" horiz-adv-x="1392" d="M61 676q0 201 76.5 363t222.5 258t336 96t336 -96t222.5 -258t76.5 -363t-76.5 -363t-222.5 -258t-336 -96t-336 96t-222.5 258t-76.5 363zM266 676q0 -292 115.5 -463.5t314.5 -171.5t314.5 171.5t115.5 463.5t-115.5 463.5t-314.5 171.5t-314.5 -171.5t-115.5 -463.5z " />
<glyph unicode="P" horiz-adv-x="1126" d="M20 1311v41h533q43 0 83.5 -3t93.5 -14t98 -28t90 -48.5t76.5 -73.5t51 -104.5t19.5 -138.5q0 -99 -37 -173.5t-88.5 -114t-119 -64t-115.5 -31t-91 -6.5h-225v-553h-184v1106q0 51 -5.5 85t-20 63t-44 43t-74.5 14h-41zM389 645q82 -20 154 -20q36 0 76.5 10t84 34.5 t77.5 60.5t56.5 94t22.5 128q0 87 -33 154t-84 103t-102 53.5t-98 17.5q-72 0 -154 -20v-615z" />
<glyph unicode="Q" horiz-adv-x="1392" d="M61 676q0 201 76.5 363t222.5 258t336 96t336 -96t222.5 -258t76.5 -363q0 -170 -55.5 -313.5t-162 -243.5t-249.5 -137q30 -99 114.5 -184t185 -131t188.5 -46v-41q-117 0 -222.5 20t-213 65t-210 126t-194.5 195q-209 61 -330 249t-121 441zM266 676 q0 -292 115.5 -463.5t314.5 -171.5t314.5 171.5t115.5 463.5t-115.5 463.5t-314.5 171.5t-314.5 -171.5t-115.5 -463.5z" />
<glyph unicode="R" horiz-adv-x="1187" d="M20 1311v41h533q43 0 84 -3t93.5 -13t97.5 -26t90 -44.5t76.5 -66t51 -93t19.5 -123.5q0 -277 -328 -348l215 -359q76 -127 137 -177t140 -58v-41q-40 -20 -123 -20q-108 0 -189 64.5t-180 231.5l-205 349h-143v-625h-184v1106q0 51 -5.5 85t-20 63t-44 43t-74.5 14h-41z M389 717q86 -21 154 -21q36 0 76.5 10t83.5 32.5t78 54.5t57 81.5t22 108.5q0 62 -22 113.5t-56.5 84.5t-78 56t-84 33t-76.5 10q-72 0 -154 -20v-543z" />
<glyph unicode="S" horiz-adv-x="1077" d="M92 215v219h37q33 -202 135 -294.5t277 -92.5q112 0 190 56t78 153q0 86 -53.5 150t-171.5 133l-252 149q-130 76 -185 157t-55 195q0 158 108.5 253.5t288.5 95.5q105 0 204.5 -28.5t169 -86.5t69.5 -131v-219h-37q-33 202 -132 292.5t-274 90.5q-95 0 -166 -57.5 t-71 -149.5q0 -84 52 -140.5t175 -128.5l252 -149q137 -80 195.5 -154t58.5 -184q0 -173 -114.5 -276t-311.5 -103q-114 0 -219.5 29.5t-176.5 88t-71 132.5z" />
<glyph unicode="T" horiz-adv-x="1126" d="M0 1034v154q0 164 174 164h952v-82h-460v-1270h-185v1270h-184q-256 0 -256 -236h-41z" />
<glyph unicode="U" horiz-adv-x="1392" d="M20 1311v41h185q75 0 112.5 -19t54.5 -71t17 -156v-584q0 -226 84 -343.5t279 -117.5q229 0 322 123.5t93 399.5v768h82v-768q0 -125 -14 -216.5t-49 -167.5t-94 -123t-149.5 -72t-215.5 -25q-148 0 -249.5 37.5t-161.5 116t-85.5 187t-25.5 263.5v522q0 51 -5.5 85 t-20 63t-44 43t-74.5 14h-41z" />
<glyph unicode="V" horiz-adv-x="1345" d="M-41 1327v41q4 0 32 2t38 2q249 0 356 -260l350 -825q100 230 142.5 329.5t59 140t81 194.5t168.5 401h98l-588 -1372h-37l-475 1132q-48 117 -94.5 162.5t-130.5 52.5z" />
<glyph unicode="W" horiz-adv-x="1792" d="M-41 1327v41q4 0 32 2t38 2q41 0 73 -4t75 -19.5t76.5 -42t67.5 -76.5t58 -118l274 -790l219 649l-49 141q-42 118 -88 163t-137 52v41q4 0 32 2t38 2q41 0 73 -4t75 -19.5t76.5 -42t67.5 -76.5t58 -118l274 -790l350 1030h89l-469 -1372h-41l-303 862l-295 -862h-41 l-398 1132q-42 118 -88 163t-137 52z" />
<glyph unicode="X" horiz-adv-x="1310" d="M-41 1311v41h246q38 0 75 -15t62.5 -33.5t57.5 -55t47.5 -58t44.5 -64.5l204 -307l410 533h102l-460 -604l327 -482q66 -96 136.5 -157t160.5 -68v-41h-215q-47 0 -89.5 19t-80 57t-61 68.5t-56.5 80.5l-245 369l-461 -594h-103l512 666l-286 419q-23 33 -31.5 45 t-31.5 41.5t-38 43t-42 34.5t-52 31.5t-60 19.5t-73 11z" />
<glyph unicode="Y" horiz-adv-x="1288" d="M-61 1311v41h184q55 0 101.5 -18t84.5 -54.5t63 -69t58 -84.5l297 -460l428 686h92l-479 -779v-573h-184v559l-348 526q-36 54 -62 87t-62.5 67t-78.5 51t-94 21z" />
<glyph unicode="Z" horiz-adv-x="1249" d="M61 0v41l850 1229h-491q-256 0 -256 -236h-41v154q0 164 174 164h891l-871 -1270h840v-82h-1096z" />
<glyph unicode="[" horiz-adv-x="542" d="M82 -410v1803h440v-82h-276v-1639h276v-82h-440z" />
<glyph unicode="\" horiz-adv-x="808" d="M20 1434l72 30l696 -1515l-71 -31z" />
<glyph unicode="]" horiz-adv-x="542" d="M20 -328h277v1639h-277v82h441v-1803h-441v82z" />
<glyph unicode="^" horiz-adv-x="1003" d="M41 676l440 717h41l441 -717h-93l-368 594l-369 -594h-92z" />
<glyph unicode="_" horiz-adv-x="819" d="M0 -348h819v-82h-819v82z" />
<glyph unicode="`" horiz-adv-x="450" d="M20 1393h205l123 -410h-102z" />
<glyph unicode="a" horiz-adv-x="993" d="M82 266q0 287 522 287h62q0 104 -15.5 175t-46.5 107.5t-67 51t-86 14.5q-91 0 -147.5 -39.5t-78.5 -134.5h-92q0 47 1.5 71t13.5 56.5t36 56.5q36 36 121.5 54t186.5 18q50 0 91 -6.5t83.5 -23t74 -47.5t57 -77t39 -116t13.5 -160v-553h-102l-72 92h-10 q-37 -46 -109.5 -79t-177.5 -33q-37 0 -74.5 8t-78.5 28.5t-72 51.5t-51.5 82.5t-20.5 115.5zM276 266q0 -94 56 -144t139 -50q48 0 87.5 19.5t61 43t46.5 60.5v276h-62q-152 0 -240 -56t-88 -149z" />
<glyph unicode="b" horiz-adv-x="1075" d="M-20 1311v41h184q75 0 112.5 -19t54.5 -71t17 -156v-184q120 61 256 61q97 0 172.5 -39.5t122 -108.5t70.5 -159t24 -195q0 -141 -39.5 -252.5t-124.5 -180t-204 -68.5q-187 0 -277 112h-10l-72 -92h-102v1106q0 51 -5.5 85t-20 63t-44 43t-74.5 14h-40zM348 184 q83 -123 215 -123q79 0 133.5 57t78.5 149t24 214q0 123 -25 214.5t-83.5 148.5t-147.5 57q-75 0 -195 -61v-656z" />
<glyph unicode="c" horiz-adv-x="931" d="M61 481q0 105 28 195t82 159t141.5 108.5t199.5 39.5q225 0 297 -72q35 -35 43 -85t8 -181h-41q-7 126 -80 191t-186 65q-147 0 -222 -116.5t-75 -303.5t75 -303.5t222 -116.5q102 0 170.5 41t126.5 123l41 -30q-68 -113 -160.5 -164t-218.5 -51q-112 0 -199.5 39 t-141.5 108t-82 159t-28 195z" />
<glyph unicode="d" horiz-adv-x="1075" d="M82 481q0 105 24 195t70.5 159t122 108.5t172.5 39.5q136 0 256 -61v184q0 51 -5.5 85t-20 63t-43.5 43t-74 14h-41v41h184q75 0 112.5 -19t54.5 -71t17 -156v-1106h-102l-72 92h-10q-90 -112 -276 -112q-119 0 -204 68.5t-125 180t-40 252.5zM276 481q0 -122 24 -214 t78.5 -149t133.5 -57q83 0 129.5 32.5t85.5 90.5v656q-120 61 -195 61q-89 0 -147.5 -57t-83.5 -148.5t-25 -214.5z" />
<glyph unicode="e" horiz-adv-x="972" d="M82 481q0 140 45.5 252.5t137.5 181t216 68.5q204 0 307 -116.5t103 -334.5l-4 -81h-611q0 -172 74.5 -281t202.5 -109q95 0 162 41t125 123l41 -30q-128 -215 -369 -215q-139 0 -238 68.5t-145.5 180t-46.5 252.5zM276 532h431q0 171 -54.5 265t-160.5 94 q-92 0 -154 -102.5t-62 -256.5z" />
<glyph unicode="f" horiz-adv-x="727" d="M20 881v82h144v61q0 348 358 348q126 0 174 -31q40 -26 72 -92l-61 -51q-62 92 -195 92q-164 0 -164 -266v-61h287v-82h-287v-881h-184v881h-144z" />
<glyph unicode="g" horiz-adv-x="983" d="M41 -92q0 95 63 164t162 102q-35 17 -58.5 48.5t-23.5 74.5q0 67 72 113q-67 33 -110.5 102.5t-43.5 163.5q0 307 390 307h378v-51l-133 -21v-10q64 -32 104 -91.5t40 -133.5q0 -307 -389 -307q-216 0 -216 -72t216 -72q95 0 174.5 -18.5t142 -55.5t98 -99t35.5 -144 q0 -69 -22.5 -123.5t-62 -90.5t-96.5 -59.5t-123.5 -34t-145.5 -10.5q-100 0 -179 17t-141.5 53t-96.5 99t-34 149zM225 -92q0 -118 72.5 -177t194.5 -59q121 0 193.5 59t72.5 177q0 100 -62 160t-184 75l-113 11q-174 -70 -174 -246zM287 676q0 -123 56.5 -179.5 t148.5 -56.5t148 56.5t56 179.5q0 117 -57 176t-147 59q-92 0 -148.5 -56t-56.5 -179z" />
<glyph unicode="h" horiz-adv-x="1105" d="M-20 1311v41h184q75 0 112.5 -19t54.5 -71t17 -156v-225q43 43 112 72.5t154 29.5q56 0 103.5 -9.5t94 -35t79 -66t52.5 -106.5t20 -152v-614h-185v614q0 143 -65 210t-160 67q-107 0 -205 -109v-782h-184v1106q0 51 -5.5 85t-20 63t-44 43t-74.5 14h-40z" />
<glyph unicode="i" horiz-adv-x="512" d="M-20 922v41h184q75 0 112.5 -19t54.5 -71t17 -156v-717h-184v717q0 51 -5.5 85t-20 63t-44 43t-74.5 14h-40zM127 1217q0 43 25.5 67.5t68.5 24.5q47 0 81 -39t34 -92q0 -43 -25.5 -68t-68.5 -25q-47 0 -81 39.5t-34 92.5z" />
<glyph unicode="j" horiz-adv-x="512" d="M-31 -348q97 0 146 105t49 294v666q0 51 -5.5 85t-20 63t-44 43t-74.5 14h-40v41h184q75 0 112.5 -19t54.5 -71t17 -156v-666q0 -119 -17.5 -198.5t-60.5 -135.5t-116.5 -81t-184.5 -25v41zM127 1217q0 43 25.5 67.5t68.5 24.5q47 0 81 -39t34 -92q0 -43 -25.5 -68 t-68.5 -25q-47 0 -81 39.5t-34 92.5z" />
<glyph unicode="k" horiz-adv-x="972" d="M-20 1311v41h184q75 0 112.5 -19t54.5 -71t17 -156v-604l256 327q50 66 111.5 100t154.5 34h62v-52q-121 0 -195 -92l-225 -287l256 -327q62 -79 113.5 -118t111.5 -48v-39q-40 -20 -102 -20q-175 0 -297 163l-246 328v-471h-184v1106q0 51 -5.5 85t-20 63t-44 43 t-74.5 14h-40z" />
<glyph unicode="l" horiz-adv-x="512" d="M-20 1311v41h184q75 0 112.5 -19t54.5 -71t17 -156v-1106h-184v1106q0 51 -5.5 85t-20 63t-44 43t-74.5 14h-40z" />
<glyph unicode="m" horiz-adv-x="1597" d="M-20 922v41h184q142 0 174 -82h10q43 43 112 72.5t154 29.5q181 0 246 -143q53 67 136.5 105t170.5 38q62 0 110.5 -16.5t90 -56t64 -114.5t22.5 -182v-614h-184v614q0 148 -42 212.5t-122 64.5q-58 0 -119.5 -41t-95.5 -92q10 -31 10 -144v-614h-184v614 q0 148 -42 212.5t-122 64.5q-107 0 -205 -109v-782h-184v717q0 51 -5.5 85t-20 63t-44 43t-74.5 14h-40z" />
<glyph unicode="n" horiz-adv-x="1105" d="M-20 922v41h184q142 0 174 -82h10q43 43 112 72.5t154 29.5q56 0 103.5 -9.5t94 -35t79 -66t52.5 -106.5t20 -152v-614h-185v614q0 143 -65 210t-160 67q-107 0 -205 -109v-782h-184v717q0 51 -5.5 85t-20 63t-44 43t-74.5 14h-40z" />
<glyph unicode="o" d="M61 481q0 140 52 252.5t156 181t243 68.5t243 -68.5t156 -181t52 -252.5t-52 -252.5t-156 -180.5t-243 -68t-243 68t-156 180.5t-52 252.5zM256 481q0 -180 71 -300t185 -120t185 120t71 300t-71 300t-185 120t-185 -120t-71 -300z" />
<glyph unicode="p" horiz-adv-x="1075" d="M-20 922v41h184q144 0 174 -93h10q91 113 277 113q119 0 204 -69t124.5 -180.5t39.5 -252.5q0 -105 -24 -195t-70.5 -159t-122 -108t-172.5 -39q-136 0 -256 61v-430h-184v1106q0 51 -5.5 85t-20 63t-44 43t-74.5 14h-40zM348 123q122 -62 195 -62q89 0 147.5 57 t83.5 148.5t25 214.5q0 122 -24 214t-78.5 149t-133.5 57q-132 0 -215 -123v-655z" />
<glyph unicode="q" horiz-adv-x="1075" d="M82 481q0 141 40 252.5t125 180.5t204 69q185 0 276 -113h10l72 93h102v-1352h-184v430q-120 -61 -256 -61q-97 0 -172.5 39t-122 108t-70.5 159t-24 195zM276 481q0 -123 25 -214.5t83.5 -148.5t147.5 -57q73 0 195 62v655q-83 123 -215 123q-79 0 -133.5 -57 t-78.5 -149t-24 -214z" />
<glyph unicode="r" horiz-adv-x="829" d="M0 922v41h164q144 0 174 -93h10q37 46 99.5 79.5t146.5 33.5q75 0 123 -31q38 -25 71 -92l-81 -61q-46 61 -164 61q-60 0 -112 -27.5t-83 -74.5v-758h-184v717q0 51 -5.5 85t-20 63t-44 43t-74.5 14h-20z" />
<glyph unicode="s" horiz-adv-x="890" d="M82 276h41q15 -102 87 -158.5t200 -56.5q111 0 168 39.5t57 104.5q0 60 -44 102t-140 82l-123 51q-122 50 -184 115.5t-62 161.5q0 127 93.5 196.5t244.5 69.5q225 0 307 -82q24 -24 35.5 -58.5t13.5 -63.5t2 -93h-41q-15 102 -85 158.5t-191 56.5q-97 0 -151 -40 t-54 -103q0 -105 164 -174l123 -52q139 -58 202.5 -121t63.5 -165q0 -127 -99.5 -196.5t-258.5 -69.5q-237 0 -318 81q-24 24 -35.5 58.5t-13.5 63.5t-2 93z" />
<glyph unicode="t" horiz-adv-x="686" d="M20 881v82h144v184l102 123h82v-307h246v-82h-246v-635q0 -91 37 -138t107 -47q33 0 64 7t45.5 13.5t43.5 20.5l21 -41q-107 -81 -256 -81q-112 0 -179 66.5t-67 199.5v635h-144z" />
<glyph unicode="u" horiz-adv-x="1105" d="M-20 922v41h163q75 0 112.5 -19t55 -71t17.5 -156v-369q0 -74 19 -129t51.5 -86t71 -46t83.5 -15q108 0 205 108v783h184v-963h-102l-72 82h-10q-43 -43 -112 -72.5t-154 -29.5q-56 0 -103.5 9.5t-94 35t-79 65.5t-52.5 106t-20 152v369q0 51 -5.5 85t-20 63t-43.5 43 t-74 14h-20z" />
<glyph unicode="v" horiz-adv-x="970" d="M-61 938v41q4 0 31.5 2t37.5 2q51 0 94.5 -10.5t90 -36.5t88.5 -79t75 -130l185 -440l286 676h103l-420 -983h-41l-317 747q-50 117 -94.5 162t-118.5 49z" />
<glyph unicode="w" horiz-adv-x="1484" d="M-61 938v41q4 0 32.5 2t38.5 2q111 0 196 -56.5t142 -199.5l174 -430l174 440q-46 108 -90.5 152.5t-113.5 48.5v41q4 0 32.5 2t38.5 2q111 0 196 -56.5t142 -199.5l174 -430l266 666h103l-400 -983h-40l-256 634l-256 -634h-41l-297 747q-45 115 -92.5 160.5 t-122.5 50.5z" />
<glyph unicode="x" horiz-adv-x="921" d="M-20 922v41h174q134 0 231 -164l127 -215l266 379h103l-328 -461l178 -297q87 -149 221 -164v-41h-184q-134 0 -231 164l-127 215l-267 -379h-102l328 461l-179 297q-87 149 -210 164z" />
<glyph unicode="y" horiz-adv-x="993" d="M-61 942v41h174q179 0 245 -164l226 -563l266 707h102l-409 -1096q-60 -161 -132 -219t-186 -58h-61v62q100 0 165.5 46t110.5 169l41 113l-317 798q-59 148 -225 164z" />
<glyph unicode="z" horiz-adv-x="921" d="M61 0v39l533 842h-236q-127 0 -191.5 -49t-64.5 -136h-41v103q0 164 175 164h624l-553 -881h553v-82h-799z" />
<glyph unicode="{" horiz-adv-x="624" d="M41 461v61q108 14 156.5 78t48.5 158v286q0 143 79.5 234t258.5 135v-61q-103 -30 -138.5 -79.5t-35.5 -146.5v-348q0 -120 -52.5 -187t-162.5 -99q110 -32 162.5 -99.5t52.5 -187.5v-348q0 -97 35.5 -146.5t138.5 -79.5v-61q-179 44 -258.5 135t-79.5 234v286 q0 94 -48.5 158t-156.5 78z" />
<glyph unicode="|" horiz-adv-x="491" d="M205 -389v1782h82v-1782h-82z" />
<glyph unicode="}" horiz-adv-x="583" d="M0 -369q103 30 138.5 79.5t35.5 146.5v348q0 120 52.5 187.5t162.5 99.5q-110 32 -162.5 99t-52.5 187v348q0 97 -35.5 146.5t-138.5 79.5v61q179 -44 258.5 -135t79.5 -234v-286q0 -94 48.5 -158t156.5 -78v-61q-108 -14 -156.5 -78t-48.5 -158v-286q0 -143 -79.5 -234 t-258.5 -135v61z" />
<glyph unicode="~" horiz-adv-x="1208" d="M82 389q0 143 72 215t174 72q69 0 150 -25.5t142 -56.5t134 -56.5t127 -25.5q75 0 119 40t44 103h82q0 -143 -71 -214.5t-174 -71.5q-69 0 -150 25.5t-142 56t-134 56t-127 25.5q-75 0 -119.5 -40t-44.5 -103h-82z" />
<glyph unicode="&#xa1;" horiz-adv-x="548" d="M164 870q0 47 32.5 80t77.5 33t78 -33t33 -80q0 -44 -33 -76t-78 -32q-44 0 -77 32t-33 76zM178 -397l37 1034h119l37 -1034h-193z" />
<glyph unicode="&#xa2;" horiz-adv-x="931" d="M61 481q0 135 44 243t138 178.5t228 80.5v82h82v-82q85 0 153 -19t103 -53q35 -35 43 -85t8 -181h-41q-7 126 -80 191t-186 65v-840q102 0 170.5 41t126.5 123l41 -30q-119 -200 -338 -215v-82h-82v82q-101 7 -180 49t-129 110t-75.5 155t-25.5 187zM256 481 q0 -157 55.5 -268t159.5 -141v819q-104 -30 -159.5 -142t-55.5 -268z" />
<glyph unicode="&#xa3;" horiz-adv-x="972" d="M-10 0v51q88 24 131 115.5t43 284.5v204h-144v82h144v205q0 90 13.5 160t39 116t57 77t74 47.5t83.5 23t91 6.5q101 0 186 -18t121 -54q24 -24 36 -56.5t14 -57t2 -70.5h-93q-22 95 -78.5 134.5t-146.5 39.5q-50 0 -86 -14.5t-67 -51t-46.5 -107.5t-15.5 -175v-205h287 v-82h-287v-204q0 -274 -112 -369h378q256 0 256 235h41v-153q0 -164 -174 -164h-747z" />
<glyph unicode="&#xa4;" horiz-adv-x="1167" d="M20 1311v41h533q512 0 512 -348q0 -369 -512 -369h-164v-62h164q141 0 227 -43t131 -141l82 -174q74 -157 215 -174v-41q-40 -20 -110 -20q-109 0 -181 47t-118 147l-82 174q-37 79 -91 111.5t-134 32.5h-103v-492h-184v492h-123v81h123v62h-123v82h123v389q0 51 -5.5 85 t-20 63t-44 43t-74.5 14h-41zM389 717h164q67 2 120.5 17.5t96.5 48t66.5 88.5t23.5 133q0 74 -24.5 129t-69 86.5t-100 46t-123.5 14.5q-72 0 -154 -20v-543z" />
<glyph unicode="&#xa5;" horiz-adv-x="1288" d="M-61 1311v41h184q55 0 101.5 -18t84.5 -54.5t63 -69t58 -84.5l297 -460l428 686h92l-479 -779v-30h195v-82h-195v-82h195v-82h-195v-297h-184v297h-195v82h195v82h-195v82h195v16l-348 526q-36 54 -62 87t-62.5 67t-78.5 51t-94 21z" />
<glyph unicode="&#xa6;" horiz-adv-x="491" d="M205 328h82v-717h-82v717zM205 676v717h82v-717h-82z" />
<glyph unicode="&#xa7;" horiz-adv-x="921" d="M123 461q0 215 215 297q-184 123 -184 307q0 153 88.5 230t228.5 77q85 0 156.5 -22t109.5 -60q24 -24 35.5 -58.5t13.5 -63.5t2 -93h-40q-15 100 -73 157.5t-143 57.5q-95 0 -149.5 -47t-54.5 -137q0 -58 26 -106.5t67.5 -83.5t92 -67.5t100.5 -66.5t91.5 -71.5 t67.5 -91t26 -117.5q0 -114 -55.5 -185.5t-161.5 -111.5q186 -125 186 -307q0 -153 -88.5 -230.5t-228.5 -77.5q-85 0 -157 22t-110 60q-24 24 -35.5 58.5t-13.5 63.5t-2 93h41q15 -100 72.5 -157.5t142.5 -57.5q95 0 150 47.5t55 137.5q0 58 -26 106.5t-67.5 83.5t-92 67.5 t-100.5 66.5t-91.5 71.5t-67.5 91t-26 117.5zM276 522q0 -80 58.5 -144t169.5 -126q141 45 141 188q0 80 -58.5 144.5t-168.5 126.5q-142 -44 -142 -189z" />
<glyph unicode="&#xa8;" horiz-adv-x="573" d="M0 1597q0 46 28 74.5t74 28.5t74.5 -28.5t28.5 -74.5t-28.5 -74t-74.5 -28t-74 28t-28 74zM369 1597q0 46 28 74.5t74 28.5t74 -28.5t28 -74.5t-28 -74t-74 -28t-74 28t-28 74z" />
<glyph unicode="&#xa9;" horiz-adv-x="1617" d="M82 676q0 155 55 290.5t150.5 231t231 150.5t290.5 55t290.5 -55t231 -150.5t150.5 -231t55 -290.5t-55 -290.5t-150.5 -231t-231 -150.5t-290.5 -55t-290.5 55t-231 150.5t-150.5 231t-55 290.5zM164 676q0 -284 180.5 -464.5t464.5 -180.5t464.5 180.5t180.5 464.5 t-180.5 464.5t-464.5 180.5t-464.5 -180.5t-180.5 -464.5zM399 670q0 200 120.5 340.5t289.5 140.5q105 0 186 -30.5t119 -76.5q16 -19 24.5 -55t9.5 -64t1 -81h-27q-48 254 -272 254q-68 0 -123.5 -22.5t-100.5 -70.5t-70.5 -133t-25.5 -202q0 -78 19 -148t56 -127 t100.5 -91t144.5 -34q185 0 299 187l27 -21q-62 -120 -151.5 -170.5t-215.5 -50.5q-185 0 -297.5 130t-112.5 325z" />
<glyph unicode="&#xaa;" horiz-adv-x="495" d="M41 965q0 155 281 155h32q0 107 -29.5 147t-84.5 40q-100 0 -121 -93h-51q0 26 0.5 37.5t7 29.5t20.5 32q36 39 164 39q42 0 73.5 -9t61 -32t45 -71.5t15.5 -119.5v-299h-56l-39 51h-6q-48 -61 -153 -61q-25 0 -51 7.5t-51.5 23.5t-41.5 48t-16 75zM145 965 q0 -50 30.5 -77.5t74.5 -27.5q26 0 47 11.5t31.5 23.5t25.5 33v147h-32q-83 0 -130 -29.5t-47 -80.5z" />
<glyph unicode="&#xab;" horiz-adv-x="675" d="M41 461l317 399h82l-194 -399l194 -400h-82zM328 461l204 297h82l-122 -297l122 -297h-82z" />
<glyph unicode="&#xac;" horiz-adv-x="1198" d="M41 799v82h1075v-410h-82v328h-993z" />
<glyph unicode="&#xad;" horiz-adv-x="686" d="M82 471v143h522v-143h-522z" />
<glyph unicode="&#xae;" horiz-adv-x="1617" d="M82 676q0 155 55 290.5t150.5 231t231 150.5t290.5 55t290.5 -55t231 -150.5t150.5 -231t55 -290.5t-55 -290.5t-150.5 -231t-231 -150.5t-290.5 -55t-290.5 55t-231 150.5t-150.5 231t-55 290.5zM164 676q0 -284 180.5 -464.5t464.5 -180.5t464.5 180.5t180.5 464.5 t-180.5 464.5t-464.5 180.5t-464.5 -180.5t-180.5 -464.5zM432 1104v26h344q41 0 79 -4t86 -19t83 -40t59.5 -71t24.5 -107q0 -53 -19 -94.5t-52 -66t-67 -38t-73 -20.5l147 -238q53 -82 89.5 -113.5t85.5 -37.5v-25q-21 -14 -86 -14q-64 0 -112.5 41t-115.5 149l-137 230 h-98v-406h-119v715q0 68 -18 100.5t-74 32.5h-27zM670 721q63 -14 100 -14q30 0 63.5 11t66 32t54 60t21.5 87t-21.5 86t-54 59t-66 32t-63.5 11q-37 0 -100 -14v-350z" />
<glyph unicode="&#xaf;" horiz-adv-x="512" />
<glyph unicode="&#xb0;" horiz-adv-x="901" d="M143 1085q0 138 85 223t223 85t222.5 -85t84.5 -223t-84.5 -222.5t-222.5 -84.5t-223 84.5t-85 222.5zM225 1085q0 -106 62.5 -170.5t163.5 -64.5q100 0 162.5 64t62.5 171t-62.5 171.5t-162.5 64.5t-163 -64.5t-63 -171.5z" />
<glyph unicode="&#xb1;" d="M41 143v82h430v410h-430v82h430v430h82v-430h430v-82h-430v-410h430v-82h-942z" />
<glyph unicode="&#xb2;" horiz-adv-x="593" d="M92 772v47q29 29 77 75.5t69 67.5t54 55.5t46.5 55t29.5 49.5t21.5 55t5.5 56q0 67 -35 104t-86 37q-58 0 -100 -42.5t-55 -117.5h-19q0 94 23 123q27 32 75.5 53t102.5 21q26 0 49 -3.5t49 -15.5t44.5 -30.5t31 -51.5t12.5 -77q0 -46 -15.5 -87.5t-53 -86t-68.5 -74.5 t-94 -86.5t-98 -89.5h209q116 0 116 98h19v-61q0 -74 -80 -74h-330z" />
<glyph unicode="&#xb3;" horiz-adv-x="604" d="M82 852l12 18q73 -79 174 -79q60 0 100 39t40 116q0 68 -37.5 107t-83.5 39q-49 0 -113 -15l-22 33l241 246h-164q-116 0 -116 -101h-19v62q0 76 80 76h289v-37l-242 -236q33 8 84 8q20 0 42 -3.5t51 -15.5t51 -31t37.5 -53.5t15.5 -78.5q0 -47 -15.5 -83.5t-38.5 -57 t-54.5 -33t-57.5 -16.5t-53 -4q-66 0 -112.5 25t-88.5 75z" />
<glyph unicode="&#xb4;" horiz-adv-x="296" d="M0 1434l113 245h184l-215 -245h-82z" />
<glyph unicode="&#xb5;" horiz-adv-x="1146" d="M164 -389v1352h184v-482q0 -122 24 -214t78.5 -149t133.5 -57q132 0 215 123v779h184v-963h-102l-72 92h-10q-40 -50 -93.5 -81t-142.5 -31q-123 0 -215 92v-461h-184z" />
<glyph unicode="&#xb6;" horiz-adv-x="1085" d="M41 973q0 173 133.5 276t337.5 103h471v-82h-133v-1659h-82v1659h-174v-1659h-82v983q-204 0 -337.5 103t-133.5 276z" />
<glyph unicode="&#xb7;" horiz-adv-x="512" />
<glyph unicode="&#xb8;" horiz-adv-x="245" d="M0 0h82v-104q164 0 164 -144q0 -77 -55 -110t-191 -33v61q92 0 128 18t36 64t-36 64t-128 18v166z" />
<glyph unicode="&#xb9;" horiz-adv-x="333" d="M20 1262l144 131h47v-621h-84v526l-92 -55z" />
<glyph unicode="&#xba;" horiz-adv-x="653" d="M102 1081q0 330 224 330q225 0 225 -330q0 -329 -225 -329q-224 0 -224 329zM197 1081q0 -154 27.5 -222t101.5 -68q75 0 103 67.5t28 222.5q0 156 -28 224.5t-103 68.5q-74 0 -101.5 -68.5t-27.5 -224.5z" />
<glyph unicode="&#xbb;" horiz-adv-x="675" d="M61 164l123 297l-123 297h82l205 -297l-205 -297h-82zM236 61l194 400l-194 399h81l318 -399l-318 -400h-81z" />
<glyph unicode="&#xbc;" horiz-adv-x="1290" d="M133 0l932 1352h92l-932 -1352h-92zM133 0l932 1352h92l-932 -1352h-92zM178 1262l144 131h47v-621h-84v526l-92 -55zM682 160v39l309 424h74v-424h84v-39h-84v-160h-84v160h-299zM737 199h244v331z" />
<glyph unicode="&#xbd;" horiz-adv-x="1290" d="M133 0l932 1352h92l-932 -1352h-92zM133 0l932 1352h92l-932 -1352h-92zM178 1262l144 131h47v-621h-84v526l-92 -55zM778 0v47q29 29 77 75.5t69 67.5t54 55.5t46.5 55t29.5 49.5t21.5 55t5.5 56q0 67 -35 104t-85 37q-58 0 -100.5 -42.5t-55.5 -117.5h-19q0 94 23 123 q27 32 75.5 53t102.5 21q33 0 62 -7t59 -24.5t48 -55t18 -91.5q0 -39 -13.5 -76.5t-33 -67t-55 -67.5t-65.5 -65t-80 -71.5t-83 -76.5h209q116 0 116 98h19v-61q0 -74 -80 -74h-330z" />
<glyph unicode="&#xbe;" horiz-adv-x="1292" d="M113 852l12 18q73 -79 174 -79q60 0 99.5 39t39.5 116q0 68 -37.5 107t-83.5 39q-47 0 -112 -15l-23 33l242 246h-164q-117 0 -117 -101h-18v62q0 76 80 76h289v-37l-242 -236q33 8 84 8q20 0 42 -3.5t50.5 -15.5t50.5 -31t37.5 -53.5t15.5 -78.5q0 -47 -15.5 -83.5 t-38.5 -57t-54.5 -33t-57.5 -16.5t-53 -4q-66 0 -112 25t-88 75zM135 0l932 1352h92l-932 -1352h-92zM135 0l932 1352h92l-932 -1352h-92zM684 160v39l309 424h74v-424h84v-39h-84v-160h-84v160h-299zM739 199h244v331z" />
<glyph unicode="&#xbf;" horiz-adv-x="954" d="M61 -45q0 71 23 132.5t60.5 107.5t83 88.5t91 81.5t83.5 79t63 90t27 105h81q-2 -68 -20 -127t-45.5 -102.5t-59.5 -83.5t-64 -79t-58.5 -80t-43 -95.5t-16.5 -116.5q0 -147 76 -227t190 -80q126 0 218 91.5t122 256.5h41q0 -68 -1.5 -104.5t-13.5 -85t-36 -76.5 q-58 -70 -165 -117t-226 -47q-55 0 -106 8.5t-108.5 34.5t-99 67t-69 113t-27.5 166zM420 874q0 44 34 77.5t78 33.5q47 0 79 -33t32 -78q0 -47 -32 -79.5t-79 -32.5t-79.5 32.5t-32.5 79.5z" />
<glyph unicode="&#xc0;" horiz-adv-x="1269" d="M41 0l573 1352h62l450 -1096q48 -117 95 -162.5t131 -52.5v-41q-33 -10 -82 -10q-42 0 -82 9t-91 34.5t-97 82.5t-78 140l-52 133h-573l-164 -389h-92zM328 471h501l-245 594zM410 1741h204l93 -307h-82z" />
<glyph unicode="&#xc1;" horiz-adv-x="1269" d="M41 0l573 1352h62l450 -1096q48 -117 95 -162.5t131 -52.5v-41q-33 -10 -82 -10q-42 0 -82 9t-91 34.5t-97 82.5t-78 140l-52 133h-573l-164 -389h-92zM328 471h501l-245 594zM594 1434l113 245h184l-215 -245h-82z" />
<glyph unicode="&#xc2;" horiz-adv-x="1269" d="M41 0l573 1352h62l450 -1096q48 -117 95 -162.5t131 -52.5v-41q-33 -10 -82 -10q-42 0 -82 9t-91 34.5t-97 82.5t-78 140l-52 133h-573l-164 -389h-92zM328 471h501l-245 594zM389 1382l164 215h184l164 -215h-82l-174 144l-174 -144h-82z" />
<glyph unicode="&#xc3;" horiz-adv-x="1269" d="M41 0l573 1352h62l450 -1096q48 -117 95 -162.5t131 -52.5v-41q-33 -10 -82 -10q-42 0 -82 9t-91 34.5t-97 82.5t-78 140l-52 133h-573l-164 -389h-92zM328 471h501l-245 594zM426 1425q0 104 29.5 144.5t93.5 40.5q41 0 97 -31t97 -31q23 0 42.5 19.5t19.5 42.5h61 q0 -104 -29.5 -144.5t-93.5 -40.5q-41 0 -97 31t-97 31q-23 0 -42.5 -19.5t-19.5 -42.5h-61z" />
<glyph unicode="&#xc4;" horiz-adv-x="1269" d="M41 0l573 1352h62l450 -1096q48 -117 95 -162.5t131 -52.5v-41q-33 -10 -82 -10q-42 0 -82 9t-91 34.5t-97 82.5t-78 140l-52 133h-573l-164 -389h-92zM328 471h501l-245 594zM369 1516q0 46 28 74t74 28t74 -28t28 -74t-28 -74.5t-74 -28.5t-74 28.5t-28 74.5zM717 1516 q0 46 28 74t74 28t74.5 -28t28.5 -74t-28.5 -74.5t-74.5 -28.5t-74 28.5t-28 74.5z" />
<glyph unicode="&#xc5;" horiz-adv-x="1269" d="M41 0l543 1280q-46 18 -79.5 59.5t-33.5 104.5q0 69 52.5 121.5t121.5 52.5t121.5 -52.5t52.5 -121.5q0 -63 -33.5 -104.5t-78.5 -59.5l419 -1024q48 -117 95 -162.5t131 -52.5v-41q-33 -10 -82 -10q-42 0 -82 9t-91 34.5t-97 82.5t-78 140l-52 133h-573l-164 -389h-92z M328 471h501l-245 594zM553 1444q0 -59 51 -92h82q51 33 51 92q0 45 -26.5 73.5t-65.5 28.5t-65.5 -28.5t-26.5 -73.5z" />
<glyph unicode="&#xc6;" horiz-adv-x="1802" d="M0 0l758 1352h739q174 0 174 -164v-154h-41q0 236 -256 236h-381v-533h553v-82h-553v-573h359q140 0 221.5 51.5t126.5 173.5l41 -10l-72 -195q-38 -102 -153 -102h-707v389h-492l-215 -389h-102zM369 471h440v789z" />
<glyph unicode="&#xc7;" horiz-adv-x="1300" d="M61 655q0 151 50.5 288t136 235.5t203 156.5t245.5 58q162 0 287 -46.5t184 -117.5q24 -29 36 -83.5t14 -99t2 -124.5h-41q-75 389 -420 389q-83 0 -153.5 -20.5t-134 -69t-108 -122.5t-70.5 -187t-26 -257q0 -95 17.5 -182t56 -166.5t94.5 -138t139.5 -93t184.5 -34.5 q150 0 262 72.5t199 214.5l41 -31q-92 -175 -219 -252.5t-304 -85.5v-63q164 0 164 -144q0 -77 -55 -110t-191 -33v61q92 0 128 18t36 64t-36 64t-128 18v125q-180 10 -316.5 105.5t-207 249t-70.5 341.5z" />
<glyph unicode="&#xc8;" horiz-adv-x="1198" d="M20 1311v41h873q174 0 174 -164v-154h-41q0 236 -256 236h-381v-533h553v-82h-553v-573h359q140 0 221.5 51.5t126.5 173.5l41 -10l-72 -195q-38 -102 -154 -102h-706v1106q0 51 -5.5 85t-20 63t-44 43t-74.5 14h-41zM379 1741h205l92 -307h-82z" />
<glyph unicode="&#xc9;" horiz-adv-x="1198" d="M20 1311v41h873q174 0 174 -164v-154h-41q0 236 -256 236h-381v-533h553v-82h-553v-573h359q140 0 221.5 51.5t126.5 173.5l41 -10l-72 -195q-38 -102 -154 -102h-706v1106q0 51 -5.5 85t-20 63t-44 43t-74.5 14h-41zM553 1434l113 245h184l-215 -245h-82z" />
<glyph unicode="&#xca;" horiz-adv-x="1198" d="M20 1311v41h873q174 0 174 -164v-154h-41q0 236 -256 236h-381v-533h553v-82h-553v-573h359q140 0 221.5 51.5t126.5 173.5l41 -10l-72 -195q-38 -102 -154 -102h-706v1106q0 51 -5.5 85t-20 63t-44 43t-74.5 14h-41zM328 1454l164 215h184l164 -215h-82l-174 143 l-174 -143h-82z" />
<glyph unicode="&#xcb;" horiz-adv-x="1198" d="M20 1311v41h873q174 0 174 -164v-154h-41q0 236 -256 236h-381v-533h553v-82h-553v-573h359q140 0 221.5 51.5t126.5 173.5l41 -10l-72 -195q-38 -102 -154 -102h-706v1106q0 51 -5.5 85t-20 63t-44 43t-74.5 14h-41zM297 1597q0 46 28 74.5t74 28.5t74.5 -28.5 t28.5 -74.5t-28.5 -74t-74.5 -28t-74 28t-28 74zM666 1597q0 46 28 74.5t74 28.5t74 -28.5t28 -74.5t-28 -74t-74 -28t-74 28t-28 74z" />
<glyph unicode="&#xcc;" horiz-adv-x="593" d="M72 1741h204l93 -307h-82zM205 246v1106h184v-1106q0 -51 5.5 -85t20 -63t43.5 -43t74 -14h41v-41h-184q-75 0 -112.5 19t-54.5 71t-17 156z" />
<glyph unicode="&#xcd;" horiz-adv-x="593" d="M205 246v1106h184v-1106q0 -51 5.5 -85t20 -63t43.5 -43t74 -14h41v-41h-184q-75 0 -112.5 19t-54.5 71t-17 156zM246 1434l112 245h185l-215 -245h-82z" />
<glyph unicode="&#xce;" horiz-adv-x="593" d="M41 1403l164 215h184l164 -215h-82l-174 143l-174 -143h-82zM205 246v1106h184v-1106q0 -51 5.5 -85t20 -63t43.5 -43t74 -14h41v-41h-184q-75 0 -112.5 19t-54.5 71t-17 156z" />
<glyph unicode="&#xcf;" horiz-adv-x="593" d="M37 1567q0 46 28 74t74 28t74.5 -28t28.5 -74t-28.5 -74.5t-74.5 -28.5t-74 28.5t-28 74.5zM205 246v1106h184v-1106q0 -51 5.5 -85t20 -63t43.5 -43t74 -14h41v-41h-184q-75 0 -112.5 19t-54.5 71t-17 156zM352 1567q0 46 28.5 74t74.5 28t74 -28t28 -74t-28 -74.5 t-74 -28.5t-74.5 28.5t-28.5 74.5z" />
<glyph unicode="&#xd0;" horiz-adv-x="1423" d="M20 1311v41h537q397 0 601 -176.5t204 -491.5q0 -151 -48.5 -275.5t-141 -216t-236.5 -142t-326 -50.5h-405v635h-154v82h154v389q0 51 -5.5 85t-20 63t-44 43t-74.5 14h-41zM395 98q121 -26 209 -26q232 0 383.5 165.5t151.5 438.5q0 178 -69.5 316t-192 213t-277.5 75 q-99 0 -205 -33v-530h178v-82h-178v-537z" />
<glyph unicode="&#xd1;" horiz-adv-x="1413" d="M0 1311v41h133q178 0 277 -123l716 -891v1014h82v-1372h-41l-880 1095v-1075h-82v1106q0 99 -41.5 152t-143.5 53h-20zM485 1403q0 103 29.5 143.5t93.5 40.5q41 0 97.5 -30.5t97.5 -30.5q23 0 42 19t19 42h62q0 -103 -29.5 -143.5t-93.5 -40.5q-41 0 -97.5 30.5 t-97.5 30.5q-23 0 -42 -19t-19 -42h-62z" />
<glyph unicode="&#xd2;" horiz-adv-x="1392" d="M61 676q0 201 76.5 363t222.5 258t336 96t336 -96t222.5 -258t76.5 -363t-76.5 -363t-222.5 -258t-336 -96t-336 96t-222.5 258t-76.5 363zM266 676q0 -292 115.5 -463.5t314.5 -171.5t314.5 171.5t115.5 463.5t-115.5 463.5t-314.5 171.5t-314.5 -171.5t-115.5 -463.5z M440 1782h205l92 -307h-82z" />
<glyph unicode="&#xd3;" horiz-adv-x="1392" d="M61 676q0 201 76.5 363t222.5 258t336 96t336 -96t222.5 -258t76.5 -363t-76.5 -363t-222.5 -258t-336 -96t-336 96t-222.5 258t-76.5 363zM266 676q0 -292 115.5 -463.5t314.5 -171.5t314.5 171.5t115.5 463.5t-115.5 463.5t-314.5 171.5t-314.5 -171.5t-115.5 -463.5z M614 1475l113 245h184l-215 -245h-82z" />
<glyph unicode="&#xd4;" horiz-adv-x="1392" d="M61 676q0 201 76.5 363t222.5 258t336 96t336 -96t222.5 -258t76.5 -363t-76.5 -363t-222.5 -258t-336 -96t-336 96t-222.5 258t-76.5 363zM266 676q0 -292 115.5 -463.5t314.5 -171.5t314.5 171.5t115.5 463.5t-115.5 463.5t-314.5 171.5t-314.5 -171.5t-115.5 -463.5z M440 1454l164 215h184l164 -215h-82l-174 143l-174 -143h-82z" />
<glyph unicode="&#xd5;" horiz-adv-x="1392" d="M61 676q0 201 76.5 363t222.5 258t336 96t336 -96t222.5 -258t76.5 -363t-76.5 -363t-222.5 -258t-336 -96t-336 96t-222.5 258t-76.5 363zM266 676q0 -292 115.5 -463.5t314.5 -171.5t314.5 171.5t115.5 463.5t-115.5 463.5t-314.5 171.5t-314.5 -171.5t-115.5 -463.5z M475 1491q0 103 29.5 143.5t93.5 40.5q41 0 97.5 -30.5t97.5 -30.5q23 0 42 19t19 42h61q0 -104 -29 -144t-93 -40q-41 0 -97.5 30.5t-97.5 30.5q-23 0 -42 -19t-19 -42h-62z" />
<glyph unicode="&#xd6;" horiz-adv-x="1392" d="M61 676q0 201 76.5 363t222.5 258t336 96t336 -96t222.5 -258t76.5 -363t-76.5 -363t-222.5 -258t-336 -96t-336 96t-222.5 258t-76.5 363zM266 676q0 -292 115.5 -463.5t314.5 -171.5t314.5 171.5t115.5 463.5t-115.5 463.5t-314.5 171.5t-314.5 -171.5t-115.5 -463.5z M420 1587q0 46 28 74.5t74 28.5t74.5 -28.5t28.5 -74.5t-28.5 -74t-74.5 -28t-74 28t-28 74zM768 1587q0 46 28 74.5t74 28.5t74.5 -28.5t28.5 -74.5t-28.5 -74t-74.5 -28t-74 28t-28 74z" />
<glyph unicode="&#xd7;" horiz-adv-x="1032" d="M154 373l305 303l-305 305l59 57l303 -303l305 303l58 -57l-306 -305l306 -303l-58 -58l-305 303l-303 -303z" />
<glyph unicode="&#xd8;" horiz-adv-x="1392" d="M61 676q0 201 76.5 363t222.5 258t336 96q139 0 256 -54l58 125l71 -30l-59 -131q146 -91 227.5 -257t81.5 -370q0 -201 -76.5 -363t-222.5 -258t-336 -96q-143 0 -266 55l-45 -96l-72 31l47 104q-141 92 -220 256.5t-79 366.5zM266 676q0 -333 148 -508l495 1077 q-94 66 -213 66q-199 0 -314.5 -171.5t-115.5 -463.5zM475 113q93 -72 221 -72q199 0 314.5 171.5t115.5 463.5q0 169 -40.5 301.5t-116.5 214.5z" />
<glyph unicode="&#xd9;" horiz-adv-x="1454" d="M20 1311v41h185q75 0 112.5 -19t54.5 -71t17 -156v-584q0 -226 84 -343.5t279 -117.5q229 0 322 123.5t93 399.5v768h82v-768q0 -125 -14 -216.5t-49 -167.5t-94 -123t-149.5 -72t-215.5 -25q-148 0 -249.5 37.5t-161.5 116t-85.5 187t-25.5 263.5v522q0 51 -5.5 85 t-20 63t-44 43t-74.5 14h-41zM543 1700h205l92 -307h-82z" />
<glyph unicode="&#xda;" horiz-adv-x="1454" d="M20 1311v41h185q75 0 112.5 -19t54.5 -71t17 -156v-584q0 -226 84 -343.5t279 -117.5q229 0 322 123.5t93 399.5v768h82v-768q0 -125 -14 -216.5t-49 -167.5t-94 -123t-149.5 -72t-215.5 -25q-148 0 -249.5 37.5t-161.5 116t-85.5 187t-25.5 263.5v522q0 51 -5.5 85 t-20 63t-44 43t-74.5 14h-41zM655 1393l113 245h184l-215 -245h-82z" />
<glyph unicode="&#xdb;" horiz-adv-x="1454" d="M20 1311v41h185q75 0 112.5 -19t54.5 -71t17 -156v-584q0 -226 84 -343.5t279 -117.5q229 0 322 123.5t93 399.5v768h82v-768q0 -125 -14 -216.5t-49 -167.5t-94 -123t-149.5 -72t-215.5 -25q-148 0 -249.5 37.5t-161.5 116t-85.5 187t-25.5 263.5v522q0 51 -5.5 85 t-20 63t-44 43t-74.5 14h-41zM522 1372l164 215h184l164 -215h-82l-174 144l-174 -144h-82z" />
<glyph unicode="&#xdc;" horiz-adv-x="1454" d="M20 1311v41h185q75 0 112.5 -19t54.5 -71t17 -156v-584q0 -226 84 -343.5t279 -117.5q229 0 322 123.5t93 399.5v768h82v-768q0 -125 -14 -216.5t-49 -167.5t-94 -123t-149.5 -72t-215.5 -25q-148 0 -249.5 37.5t-161.5 116t-85.5 187t-25.5 263.5v522q0 51 -5.5 85 t-20 63t-44 43t-74.5 14h-41zM502 1495q0 46 28 74t74 28t74.5 -28t28.5 -74t-28.5 -74t-74.5 -28t-74 28t-28 74zM850 1495q0 46 28 74t74 28t74.5 -28t28.5 -74t-28.5 -74t-74.5 -28t-74 28t-28 74z" />
<glyph unicode="&#xdd;" horiz-adv-x="1288" d="M-61 1311v41h184q55 0 101.5 -18t84.5 -54.5t63 -69t58 -84.5l297 -460l428 686h92l-479 -779v-573h-184v559l-348 526q-36 54 -62 87t-62.5 67t-78.5 51t-94 21zM635 1393l113 245h184l-215 -245h-82z" />
<glyph unicode="&#xde;" horiz-adv-x="1085" d="M20 1372v41h185q107 0 145.5 -38.5t38.5 -145.5v-103q309 0 472 -122t163 -359t-163 -359t-472 -122v-225h-184v1290q0 76 -33.5 109.5t-110.5 33.5h-41zM389 246q221 0 325.5 106.5t104.5 292.5t-104.5 292.5t-325.5 106.5v-798z" />
<glyph unicode="&#xdf;" horiz-adv-x="1116" d="M164 0v1024q0 84 21.5 146.5t56.5 100.5t88 61t108.5 31.5t124.5 8.5q165 0 256.5 -56t91.5 -149q0 -53 -17.5 -96t-43.5 -69.5t-56.5 -54.5t-56.5 -51.5t-43.5 -59t-17.5 -78.5q0 -62 43.5 -112t105 -87t123 -77t105 -100t43.5 -136q0 -133 -80 -199.5t-217 -66.5 q-78 0 -148 21.5t-108 59.5q-24 24 -36 56t-13.5 52.5t-1.5 55.5h40q8 -64 72.5 -114t153.5 -50q75 0 119.5 40.5t44.5 103.5q0 62 -43.5 112t-105 87t-123 77t-105 100t-43.5 136q0 53 17.5 96t43.5 69.5t56.5 54.5t56.5 51.5t43.5 59t17.5 78.5q0 78 -46.5 121t-137.5 43 q-105 0 -155 -59t-50 -207v-1024h-184z" />
<glyph unicode="&#xe0;" horiz-adv-x="993" d="M82 266q0 287 522 287h62q0 104 -15.5 175t-46.5 107.5t-67 51t-86 14.5q-91 0 -147.5 -39.5t-78.5 -134.5h-92q0 47 1.5 71t13.5 56.5t36 56.5q36 36 121.5 54t186.5 18q50 0 91 -6.5t83.5 -23t74 -47.5t57 -77t39 -116t13.5 -160v-553h-102l-72 92h-10 q-37 -46 -109.5 -79t-177.5 -33q-37 0 -74.5 8t-78.5 28.5t-72 51.5t-51.5 82.5t-20.5 115.5zM256 1382h205l92 -307h-82zM276 266q0 -94 56 -144t139 -50q48 0 87.5 19.5t61 43t46.5 60.5v276h-62q-152 0 -240 -56t-88 -149z" />
<glyph unicode="&#xe1;" horiz-adv-x="993" d="M82 266q0 287 522 287h62q0 104 -15.5 175t-46.5 107.5t-67 51t-86 14.5q-91 0 -147.5 -39.5t-78.5 -134.5h-92q0 47 1.5 71t13.5 56.5t36 56.5q36 36 121.5 54t186.5 18q50 0 91 -6.5t83.5 -23t74 -47.5t57 -77t39 -116t13.5 -160v-553h-102l-72 92h-10 q-37 -46 -109.5 -79t-177.5 -33q-37 0 -74.5 8t-78.5 28.5t-72 51.5t-51.5 82.5t-20.5 115.5zM276 266q0 -94 56 -144t139 -50q48 0 87.5 19.5t61 43t46.5 60.5v276h-62q-152 0 -240 -56t-88 -149zM420 1075l112 246h185l-215 -246h-82z" />
<glyph unicode="&#xe2;" horiz-adv-x="993" d="M82 266q0 287 522 287h62q0 104 -15.5 175t-46.5 107.5t-67 51t-86 14.5q-91 0 -147.5 -39.5t-78.5 -134.5h-92q0 47 1.5 71t13.5 56.5t36 56.5q36 36 121.5 54t186.5 18q50 0 91 -6.5t83.5 -23t74 -47.5t57 -77t39 -116t13.5 -160v-553h-102l-72 92h-10 q-37 -46 -109.5 -79t-177.5 -33q-37 0 -74.5 8t-78.5 28.5t-72 51.5t-51.5 82.5t-20.5 115.5zM236 1065l163 215h185l164 -215h-82l-174 143l-175 -143h-81zM276 266q0 -94 56 -144t139 -50q48 0 87.5 19.5t61 43t46.5 60.5v276h-62q-152 0 -240 -56t-88 -149z" />
<glyph unicode="&#xe3;" horiz-adv-x="993" d="M82 266q0 287 522 287h62q0 104 -15.5 175t-46.5 107.5t-67 51t-86 14.5q-91 0 -147.5 -39.5t-78.5 -134.5h-92q0 47 1.5 71t13.5 56.5t36 56.5q36 36 121.5 54t186.5 18q50 0 91 -6.5t83.5 -23t74 -47.5t57 -77t39 -116t13.5 -160v-553h-102l-72 92h-10 q-37 -46 -109.5 -79t-177.5 -33q-37 0 -74.5 8t-78.5 28.5t-72 51.5t-51.5 82.5t-20.5 115.5zM266 1096q0 103 29.5 143.5t93.5 40.5q41 0 97.5 -30.5t97.5 -30.5q23 0 42 19t19 42h62q0 -103 -29.5 -143.5t-93.5 -40.5q-41 0 -97.5 30.5t-97.5 30.5q-23 0 -42 -19t-19 -42 h-62zM276 266q0 -94 56 -144t139 -50q48 0 87.5 19.5t61 43t46.5 60.5v276h-62q-152 0 -240 -56t-88 -149z" />
<glyph unicode="&#xe4;" horiz-adv-x="993" d="M82 266q0 287 522 287h62q0 104 -15.5 175t-46.5 107.5t-67 51t-86 14.5q-91 0 -147.5 -39.5t-78.5 -134.5h-92q0 47 1.5 71t13.5 56.5t36 56.5q36 36 121.5 54t186.5 18q50 0 91 -6.5t83.5 -23t74 -47.5t57 -77t39 -116t13.5 -160v-553h-102l-72 92h-10 q-37 -46 -109.5 -79t-177.5 -33q-37 0 -74.5 8t-78.5 28.5t-72 51.5t-51.5 82.5t-20.5 115.5zM205 1188q0 38 27 65t65 27t65 -27t27 -65t-27 -65t-65 -27t-65 27t-27 65zM276 266q0 -94 56 -144t139 -50q48 0 87.5 19.5t61 43t46.5 60.5v276h-62q-152 0 -240 -56t-88 -149z M553 1188q0 38 27 65t65 27t65 -27t27 -65t-27 -65t-65 -27t-65 27t-27 65z" />
<glyph unicode="&#xe5;" horiz-adv-x="993" d="M82 266q0 287 522 287h62q0 104 -15.5 175t-46.5 107.5t-67 51t-86 14.5q-91 0 -147.5 -39.5t-78.5 -134.5h-92q0 47 1.5 71t13.5 56.5t36 56.5q36 36 121.5 54t186.5 18q50 0 91 -6.5t83.5 -23t74 -47.5t57 -77t39 -116t13.5 -160v-553h-102l-72 92h-10 q-37 -46 -109.5 -79t-177.5 -33q-37 0 -74.5 8t-78.5 28.5t-72 51.5t-51.5 82.5t-20.5 115.5zM276 266q0 -94 56 -144t139 -50q48 0 87.5 19.5t61 43t46.5 60.5v276h-62q-152 0 -240 -56t-88 -149zM307 1260q0 69 52.5 121.5t121.5 52.5t121.5 -52.5t52.5 -121.5t-52.5 -122 t-121.5 -53t-121.5 53t-52.5 122zM389 1260q0 -45 26.5 -74t65.5 -29t65.5 29t26.5 74t-26.5 73.5t-65.5 28.5t-65.5 -28.5t-26.5 -73.5z" />
<glyph unicode="&#xe6;" horiz-adv-x="1546" d="M82 256q0 78 41.5 133.5t117 85.5t164.5 43.5t199 13.5h62q0 111 -15.5 186.5t-46.5 114t-67 53.5t-86 15q-91 0 -147.5 -39.5t-78.5 -134.5h-92q0 47 1.5 71t13.5 56.5t36 56.5q36 36 121.5 54t186.5 18q103 0 178.5 -51.5t107.5 -132.5q32 80 106.5 132t170.5 52 q204 0 306.5 -116t102.5 -335l-4 -81h-610q0 -173 74 -281.5t202 -108.5q95 0 162 41t125 123l41 -30q-128 -215 -369 -215q-237 0 -348 174q-48 -89 -123 -131.5t-204 -42.5q-46 0 -89.5 8t-87.5 27.5t-77 50t-53.5 79.5t-20.5 111zM276 256q0 -88 56.5 -136t138.5 -48 q48 0 87.5 19.5t61 43t46.5 60.5v256h-62q-151 0 -239.5 -54.5t-88.5 -140.5zM850 532h430q0 171 -54.5 265t-160.5 94q-92 0 -153.5 -102.5t-61.5 -256.5z" />
<glyph unicode="&#xe7;" horiz-adv-x="931" d="M61 481q0 105 28 195t82 159t141.5 108.5t199.5 39.5q225 0 297 -72q35 -35 43 -85t8 -181h-41q-7 126 -80 191t-186 65q-147 0 -222 -116.5t-75 -303.5t75 -303.5t222 -116.5q102 0 170.5 41t126.5 123l41 -30q-64 -107 -151.5 -157t-207.5 -58v-64q81 -3 122.5 -36.5 t41.5 -106.5q0 -78 -54.5 -111t-190.5 -33v62q92 0 127.5 18t35.5 64t-35.5 64t-127.5 18v125q-129 15 -218.5 87t-130.5 177.5t-41 236.5z" />
<glyph unicode="&#xe8;" horiz-adv-x="972" d="M82 481q0 140 45.5 252.5t137.5 181t216 68.5q204 0 307 -116.5t103 -334.5l-4 -81h-611q0 -172 74.5 -281t202.5 -109q95 0 162 41t125 123l41 -30q-128 -215 -369 -215q-139 0 -238 68.5t-145.5 180t-46.5 252.5zM236 1382h204l92 -307h-81zM276 532h431 q0 171 -54.5 265t-160.5 94q-92 0 -154 -102.5t-62 -256.5z" />
<glyph unicode="&#xe9;" horiz-adv-x="972" d="M82 481q0 140 45.5 252.5t137.5 181t216 68.5q204 0 307 -116.5t103 -334.5l-4 -81h-611q0 -172 74.5 -281t202.5 -109q95 0 162 41t125 123l41 -30q-128 -215 -369 -215q-139 0 -238 68.5t-145.5 180t-46.5 252.5zM276 532h431q0 171 -54.5 265t-160.5 94 q-92 0 -154 -102.5t-62 -256.5zM399 1075l113 246h184l-215 -246h-82z" />
<glyph unicode="&#xea;" horiz-adv-x="972" d="M82 481q0 140 45.5 252.5t137.5 181t216 68.5q204 0 307 -116.5t103 -334.5l-4 -81h-611q0 -172 74.5 -281t202.5 -109q95 0 162 41t125 123l41 -30q-128 -215 -369 -215q-139 0 -238 68.5t-145.5 180t-46.5 252.5zM225 1055l164 215h184l164 -215h-82l-174 143 l-174 -143h-82zM276 532h431q0 171 -54.5 265t-160.5 94q-92 0 -154 -102.5t-62 -256.5z" />
<glyph unicode="&#xeb;" horiz-adv-x="972" d="M82 481q0 140 45.5 252.5t137.5 181t216 68.5q204 0 307 -116.5t103 -334.5l-4 -81h-611q0 -172 74.5 -281t202.5 -109q95 0 162 41t125 123l41 -30q-128 -215 -369 -215q-139 0 -238 68.5t-145.5 180t-46.5 252.5zM215 1188q0 38 27 65t65 27t65 -27t27 -65t-27 -65 t-65 -27t-65 27t-27 65zM276 532h431q0 171 -54.5 265t-160.5 94q-92 0 -154 -102.5t-62 -256.5zM563 1188q0 38 27 65t65 27t65.5 -27t27.5 -65t-27.5 -65t-65.5 -27t-65 27t-27 65z" />
<glyph unicode="&#xec;" horiz-adv-x="512" d="M-20 922v41h184q75 0 112.5 -19t54.5 -71t17 -156v-717h-184v717q0 51 -5.5 85t-20 63t-44 43t-74.5 14h-40zM10 1382h205l92 -307h-82z" />
<glyph unicode="&#xed;" horiz-adv-x="512" d="M-20 922v41h184q75 0 112.5 -19t54.5 -71t17 -156v-717h-184v717q0 51 -5.5 85t-20 63t-44 43t-74.5 14h-40zM174 1075l113 246h184l-215 -246h-82z" />
<glyph unicode="&#xee;" horiz-adv-x="512" d="M-20 922v41h184q75 0 112.5 -19t54.5 -71t17 -156v-717h-184v717q0 51 -5.5 85t-20 63t-44 43t-74.5 14h-40zM0 1065l164 215h184l164 -215h-82l-174 143l-174 -143h-82z" />
<glyph unicode="&#xef;" horiz-adv-x="512" d="M-23 1217q0 42 26 67t69 25q47 0 80.5 -39t33.5 -92q0 -43 -25.5 -68t-68.5 -25q-47 0 -81 39.5t-34 92.5zM-20 922v41h184q75 0 112.5 -19t54.5 -71t17 -156v-717h-184v717q0 51 -5.5 85t-20 63t-44 43t-74.5 14h-40zM293 1217q0 43 25.5 67.5t68.5 24.5q47 0 81 -39 t34 -92q0 -43 -25.5 -68t-68.5 -25q-47 0 -81 39.5t-34 92.5z" />
<glyph unicode="&#xf0;" horiz-adv-x="1044" d="M61 481q0 140 52 252.5t156 181t243 68.5q85 0 156.5 -44t109.5 -120q-24 112 -57.5 190.5t-85.5 137.5l-82 -82l-61 61l81 82q-48 48 -99.5 70t-125.5 22q-21 0 -69 -12l-17 39q67 45 168 45q120 0 236 -82l71 82l62 -61l-72 -72q111 -111 173.5 -286.5t62.5 -399.5 q0 -264 -119 -418.5t-332 -154.5q-139 0 -243 68t-156 180.5t-52 252.5zM256 481q0 -180 71 -300t185 -120t185 120t71 300t-71 300t-185 120t-185 -120t-71 -300z" />
<glyph unicode="&#xf1;" horiz-adv-x="1126" d="M-20 922v41h184q142 0 174 -82h10q43 43 112 72.5t154 29.5q56 0 103.5 -9.5t94 -35t79 -66t52.5 -106.5t20 -152v-614h-185v614q0 143 -65 210t-160 67q-107 0 -205 -109v-782h-184v717q0 51 -5.5 85t-20 63t-44 43t-74.5 14h-40zM358 1096q0 103 29.5 143.5t93.5 40.5 q41 0 97.5 -30.5t97.5 -30.5q23 0 42 19t19 42h62q0 -103 -29.5 -143.5t-93.5 -40.5q-41 0 -97.5 30.5t-97.5 30.5q-23 0 -42 -19t-19 -42h-62z" />
<glyph unicode="&#xf2;" d="M61 481q0 140 52 252.5t156 181t243 68.5t243 -68.5t156 -181t52 -252.5t-52 -252.5t-156 -180.5t-243 -68t-243 68t-156 180.5t-52 252.5zM256 481q0 -180 71 -300t185 -120t185 120t71 300t-71 300t-185 120t-185 -120t-71 -300zM276 1382h205l92 -307h-81z" />
<glyph unicode="&#xf3;" d="M61 481q0 140 52 252.5t156 181t243 68.5t243 -68.5t156 -181t52 -252.5t-52 -252.5t-156 -180.5t-243 -68t-243 68t-156 180.5t-52 252.5zM256 481q0 -180 71 -300t185 -120t185 120t71 300t-71 300t-185 120t-185 -120t-71 -300zM451 1075l112 246h185l-216 -246h-81z " />
<glyph unicode="&#xf4;" d="M61 481q0 140 52 252.5t156 181t243 68.5t243 -68.5t156 -181t52 -252.5t-52 -252.5t-156 -180.5t-243 -68t-243 68t-156 180.5t-52 252.5zM256 481q0 -180 71 -300t185 -120t185 120t71 300t-71 300t-185 120t-185 -120t-71 -300zM256 1055l164 215h184l164 -215h-82 l-174 143l-174 -143h-82z" />
<glyph unicode="&#xf5;" d="M61 481q0 140 52 252.5t156 181t243 68.5t243 -68.5t156 -181t52 -252.5t-52 -252.5t-156 -180.5t-243 -68t-243 68t-156 180.5t-52 252.5zM256 481q0 -180 71 -300t185 -120t185 120t71 300t-71 300t-185 120t-185 -120t-71 -300zM287 1096q0 103 29.5 143.5t93.5 40.5 q41 0 97 -30.5t97 -30.5q23 0 42.5 19t19.5 42h61q0 -103 -29.5 -143.5t-93.5 -40.5q-41 0 -97 30.5t-97 30.5q-23 0 -42.5 -19t-19.5 -42h-61z" />
<glyph unicode="&#xf6;" d="M61 481q0 140 52 252.5t156 181t243 68.5t243 -68.5t156 -181t52 -252.5t-52 -252.5t-156 -180.5t-243 -68t-243 68t-156 180.5t-52 252.5zM246 1188q0 38 27 65t65 27t65 -27t27 -65t-27 -65t-65 -27t-65 27t-27 65zM256 481q0 -180 71 -300t185 -120t185 120t71 300 t-71 300t-185 120t-185 -120t-71 -300zM594 1188q0 38 27 65t65 27t65 -27t27 -65t-27 -65t-65 -27t-65 27t-27 65z" />
<glyph unicode="&#xf7;" d="M61 635v82h902v-82h-902zM420 389q0 38 27 65t65 27t65 -27t27 -65t-27 -65t-65 -27t-65 27t-27 65zM420 963q0 38 27 65t65 27t65 -27t27 -65t-27 -65.5t-65 -27.5t-65 27.5t-27 65.5z" />
<glyph unicode="&#xf8;" d="M61 481q0 140 52 252.5t156 181t243 68.5q93 0 172 -31l33 72l71 -31l-34 -78q100 -64 154.5 -179t54.5 -255t-52 -252.5t-156 -180.5t-243 -68q-95 0 -172 30l-33 -71l-71 30l34 76q-100 65 -154.5 180t-54.5 256zM256 481q0 -185 74 -305l307 676q-55 49 -125 49 q-114 0 -185 -120t-71 -300zM385 111q60 -50 127 -50q114 0 185 120t71 300q0 183 -74 303z" />
<glyph unicode="&#xf9;" horiz-adv-x="1105" d="M-20 922v41h163q75 0 112.5 -19t55 -71t17.5 -156v-369q0 -74 19 -129t51.5 -86t71 -46t83.5 -15q108 0 205 108v783h184v-963h-102l-72 82h-10q-43 -43 -112 -72.5t-154 -29.5q-56 0 -103.5 9.5t-94 35t-79 65.5t-52.5 106t-20 152v369q0 51 -5.5 85t-20 63t-43.5 43 t-74 14h-20zM297 1331h205l92 -307h-82z" />
<glyph unicode="&#xfa;" horiz-adv-x="1105" d="M-20 922v41h163q75 0 112.5 -19t55 -71t17.5 -156v-369q0 -74 19 -129t51.5 -86t71 -46t83.5 -15q108 0 205 108v783h184v-963h-102l-72 82h-10q-43 -43 -112 -72.5t-154 -29.5q-56 0 -103.5 9.5t-94 35t-79 65.5t-52.5 106t-20 152v369q0 51 -5.5 85t-20 63t-43.5 43 t-74 14h-20zM461 1024l112 246h185l-215 -246h-82z" />
<glyph unicode="&#xfb;" horiz-adv-x="1105" d="M-20 922v41h163q75 0 112.5 -19t55 -71t17.5 -156v-369q0 -74 19 -129t51.5 -86t71 -46t83.5 -15q108 0 205 108v783h184v-963h-102l-72 82h-10q-43 -43 -112 -72.5t-154 -29.5q-56 0 -103.5 9.5t-94 35t-79 65.5t-52.5 106t-20 152v369q0 51 -5.5 85t-20 63t-43.5 43 t-74 14h-20zM287 1044l164 216h184l164 -216h-82l-174 144l-174 -144h-82z" />
<glyph unicode="&#xfc;" horiz-adv-x="1105" d="M-20 922v41h163q75 0 112.5 -19t55 -71t17.5 -156v-369q0 -74 19 -129t51.5 -86t71 -46t83.5 -15q108 0 205 108v783h184v-963h-102l-72 82h-10q-43 -43 -112 -72.5t-154 -29.5q-56 0 -103.5 9.5t-94 35t-79 65.5t-52.5 106t-20 152v369q0 51 -5.5 85t-20 63t-43.5 43 t-74 14h-20zM276 1137q0 38 27.5 65t65.5 27t65 -27t27 -65t-27 -65.5t-65 -27.5t-65.5 27.5t-27.5 65.5zM625 1137q0 38 27 65t65 27t65 -27t27 -65t-27 -65.5t-65 -27.5t-65 27.5t-27 65.5z" />
<glyph unicode="&#xfd;" horiz-adv-x="993" d="M-61 942v41h174q179 0 245 -164l226 -563l266 707h102l-409 -1096q-60 -161 -132 -219t-186 -58h-61v62q100 0 165.5 46t110.5 169l41 113l-317 798q-59 148 -225 164zM512 1024l113 246h184l-215 -246h-82z" />
<glyph unicode="&#xfe;" horiz-adv-x="1075" d="M-10 1311v41h174q75 0 112.5 -19t54.5 -71t17 -156v-123v-113q91 113 277 113q119 0 204 -69t124.5 -180.5t39.5 -252.5q0 -105 -24 -195t-70.5 -159t-122 -108t-172.5 -39q-136 0 -256 61v-430h-184v1495q0 51 -5.5 85t-20 63t-44 43t-74.5 14h-30zM348 123 q122 -62 195 -62q89 0 147.5 57t83.5 148.5t25 214.5q0 122 -24 214t-78.5 149t-133.5 57q-132 0 -215 -123v-655z" />
<glyph unicode="&#xff;" horiz-adv-x="993" d="M-61 942v41h174q179 0 245 -164l226 -563l266 707h102l-409 -1096q-60 -161 -132 -219t-186 -58h-61v62q100 0 165.5 46t110.5 169l41 113l-317 798q-59 148 -225 164zM307 1137q0 38 27 65t65 27t65.5 -27t27.5 -65t-27.5 -65.5t-65.5 -27.5t-65 27.5t-27 65.5z M655 1137q0 38 27.5 65t65.5 27t65 -27t27 -65t-27 -65.5t-65 -27.5t-65.5 27.5t-27.5 65.5z" />
<glyph unicode="&#x152;" horiz-adv-x="1904" d="M61 676q0 201 76.5 363t222.5 258t336 96q131 0 226 -41h677q175 0 175 -164v-154h-41q0 236 -256 236h-381v-533h553v-82h-553v-573h358q140 0 221.5 51.5t126.5 173.5l41 -10l-71 -195q-38 -102 -154 -102h-696q-95 -41 -226 -41q-190 0 -336 96t-222.5 258t-76.5 363z M266 676q0 -292 115.5 -463.5t314.5 -171.5q127 0 215 65v1143q-92 62 -215 62q-199 0 -314.5 -171.5t-115.5 -463.5z" />
<glyph unicode="&#x153;" horiz-adv-x="1587" d="M61 481q0 140 52 252.5t156 181t243 68.5q197 0 309 -121q105 121 275 121q204 0 306.5 -116t102.5 -335l-4 -81h-610q0 -173 74 -281.5t202 -108.5q95 0 162 41t125 123l41 -30q-128 -215 -369 -215q-185 0 -307 122q-122 -122 -307 -122q-139 0 -243 68t-156 180.5 t-52 252.5zM256 481q0 -180 71 -300t185 -120q144 0 225 195q-41 105 -41 225q0 121 41 226q-32 88 -91.5 141t-133.5 53q-114 0 -185 -120t-71 -300zM891 532h430q0 171 -54.5 265t-160.5 94q-92 0 -153.5 -102.5t-61.5 -256.5z" />
<glyph unicode="&#x178;" horiz-adv-x="1288" d="M-61 1311v41h184q55 0 101.5 -18t84.5 -54.5t63 -69t58 -84.5l297 -460l428 686h92l-479 -779v-573h-184v559l-348 526q-36 54 -62 87t-62.5 67t-78.5 51t-94 21zM430 1516q0 46 28 74t74 28t74.5 -28t28.5 -74t-28.5 -74.5t-74.5 -28.5t-74 28.5t-28 74.5zM778 1516 q0 46 28.5 74t74.5 28t74 -28t28 -74t-28 -74.5t-74 -28.5t-74.5 28.5t-28.5 74.5z" />
<glyph unicode="&#x2c6;" horiz-adv-x="512" d="M0 1372l164 215h184l164 -215h-82l-174 144l-174 -144h-82z" />
<glyph unicode="&#x2dc;" horiz-adv-x="440" d="M0 1425q0 104 29.5 144.5t93.5 40.5q41 0 97 -31t97 -31q23 0 42.5 19.5t19.5 42.5h61q0 -104 -29.5 -144.5t-93.5 -40.5q-41 0 -97 31t-97 31q-23 0 -42.5 -19.5t-19.5 -42.5h-61z" />
<glyph unicode="&#x2000;" horiz-adv-x="891" />
<glyph unicode="&#x2001;" horiz-adv-x="1782" />
<glyph unicode="&#x2002;" horiz-adv-x="891" />
<glyph unicode="&#x2003;" horiz-adv-x="1782" />
<glyph unicode="&#x2004;" horiz-adv-x="594" />
<glyph unicode="&#x2005;" horiz-adv-x="445" />
<glyph unicode="&#x2006;" horiz-adv-x="297" />
<glyph unicode="&#x2007;" horiz-adv-x="297" />
<glyph unicode="&#x2008;" horiz-adv-x="222" />
<glyph unicode="&#x2009;" horiz-adv-x="356" />
<glyph unicode="&#x200a;" horiz-adv-x="99" />
<glyph unicode="&#x2010;" horiz-adv-x="686" d="M82 471v143h522v-143h-522z" />
<glyph unicode="&#x2011;" horiz-adv-x="686" d="M82 471v143h522v-143h-522z" />
<glyph unicode="&#x2012;" horiz-adv-x="686" d="M82 471v143h522v-143h-522z" />
<glyph unicode="&#x2013;" horiz-adv-x="1044" d="M41 471v82h963v-82h-963z" />
<glyph unicode="&#x2014;" horiz-adv-x="1597" d="M41 471v82h1515v-82h-1515z" />
<glyph unicode="&#x2018;" horiz-adv-x="542" d="M143 1014q0 249 226 379l20 -31q-81 -57 -122.5 -123t-41.5 -154l62 21q46 0 79 -33.5t33 -79.5q0 -54 -34.5 -88.5t-88.5 -34.5q-62 0 -97.5 38t-35.5 106z" />
<glyph unicode="&#x2019;" horiz-adv-x="542" d="M143 1270q0 54 34.5 88.5t88.5 34.5q62 0 97.5 -38t35.5 -106q0 -250 -225 -379l-20 31q81 57 122 123t41 154l-61 -21q-46 0 -79.5 33.5t-33.5 79.5z" />
<glyph unicode="&#x201a;" horiz-adv-x="542" d="M143 82q0 54 34.5 88.5t88.5 34.5q62 0 97.5 -38t35.5 -106q0 -249 -225 -378l-20 30q81 57 122 123t41 154l-61 -21q-46 0 -79.5 33.5t-33.5 79.5z" />
<glyph unicode="&#x201c;" horiz-adv-x="911" d="M143 1014q0 249 226 379l20 -31q-81 -57 -122.5 -123t-41.5 -154l62 21q46 0 79 -33.5t33 -79.5q0 -54 -34.5 -88.5t-88.5 -34.5q-62 0 -97.5 38t-35.5 106zM512 1014q0 250 225 379l21 -31q-81 -57 -122.5 -123t-41.5 -154l61 21q46 0 79.5 -33.5t33.5 -79.5 q0 -54 -34.5 -88.5t-88.5 -34.5q-62 0 -97.5 38t-35.5 106z" />
<glyph unicode="&#x201d;" horiz-adv-x="911" d="M143 1270q0 54 34.5 88.5t88.5 34.5q62 0 97.5 -38t35.5 -106q0 -250 -225 -379l-20 31q81 57 122 123t41 154l-61 -21q-46 0 -79.5 33.5t-33.5 79.5zM512 1270q0 54 34.5 88.5t88.5 34.5q62 0 97.5 -38t35.5 -106q0 -250 -225 -379l-21 31q81 57 122.5 123t41.5 154 l-61 -21q-46 0 -79.5 33.5t-33.5 79.5z" />
<glyph unicode="&#x201e;" horiz-adv-x="911" d="M143 82q0 54 34.5 88.5t88.5 34.5q62 0 97.5 -38t35.5 -106q0 -249 -225 -378l-20 30q81 57 122 123t41 154l-61 -21q-46 0 -79.5 33.5t-33.5 79.5zM512 82q0 54 34.5 88.5t88.5 34.5q62 0 97.5 -38t35.5 -106q0 -249 -225 -378l-21 30q81 57 122.5 123t41.5 154l-61 -21 q-46 0 -79.5 33.5t-33.5 79.5z" />
<glyph unicode="&#x2022;" horiz-adv-x="696" d="M102 676q0 107 69.5 176.5t176.5 69.5t176.5 -69.5t69.5 -176.5t-69.5 -176.5t-176.5 -69.5t-176.5 69.5t-69.5 176.5z" />
<glyph unicode="&#x2026;" horiz-adv-x="1286" d="M102 84q0 44 33.5 77.5t77.5 33.5q47 0 79 -33t32 -78q0 -47 -33 -80t-78 -33t-78 33t-33 80zM532 84q0 44 33.5 77.5t77.5 33.5q47 0 79 -33t32 -78q0 -47 -33 -80t-78 -33t-78 33t-33 80zM963 84q0 44 33 77.5t77 33.5q47 0 79 -33t32 -78q0 -47 -33 -80t-78 -33 t-77.5 33t-32.5 80z" />
<glyph unicode="&#x202f;" horiz-adv-x="356" />
<glyph unicode="&#x2039;" horiz-adv-x="542" d="M41 461l358 399h82l-225 -399l225 -400h-82z" />
<glyph unicode="&#x203a;" horiz-adv-x="542" d="M61 61l226 400l-226 399h82l359 -399l-359 -400h-82z" />
<glyph unicode="&#x205f;" horiz-adv-x="445" />
<glyph unicode="&#x20ac;" horiz-adv-x="1382" d="M0 522l20 82h123v123h-112l20 82h107q46 252 220 418t400 166q162 0 287 -46.5t184 -117.5q24 -28 36 -83.5t13.5 -98.5t1.5 -125h-40q-75 389 -420 389q-93 0 -170.5 -26.5t-143.5 -84t-110 -156.5t-60 -235h412l-20 -82h-400v-123h389l-20 -82h-361 q14 -100 49.5 -184.5t93.5 -152t145.5 -106t195.5 -38.5q150 0 261 72t199 215l41 -31q-96 -184 -232.5 -261t-330.5 -77q-252 0 -419 156.5t-205 406.5h-154z" />
<glyph unicode="&#x2122;" horiz-adv-x="1730" d="M41 1137v92q0 123 115 123h559v-62h-269v-661h-137v661h-78q-71 0 -115 -40t-44 -113h-31zM784 629v723h146l229 -508l230 508h137v-492q0 -92 34 -161.5t89 -69.5v-31q-142 0 -201 66.5t-59 195.5v332l-252 -563h-31l-260 577v-577h-62z" />
<glyph unicode="&#xe000;" horiz-adv-x="962" d="M0 0v963h963v-963h-963z" />
</font>
</defs>
</svg>
